<?xml version="1.0" standalone="no"?>
<!DOCTYPE svg PUBLIC "-//W3C//DTD SVG 20010904//EN"
 "http://www.w3.org/TR/2001/REC-SVG-20010904/DTD/svg10.dtd">
<svg version="1.0" xmlns="http://www.w3.org/2000/svg"
 width="512.000000pt" height="512.000000pt" viewBox="0 0 512.000000 512.000000"
 preserveAspectRatio="xMidYMid meet">
<metadata>
Created by potrace 1.11, written by Peter Selinger 2001-2013
</metadata>
<g transform="translate(0.000000,512.000000) scale(0.100000,-0.100000)"
fill="#000000" stroke="none">
<path d="M2378 5115 c-2 -1 -39 -5 -82 -9 -44 -4 -82 -9 -85 -11 -4 -2 -34 -7
-66 -10 -117 -14 -472 -111 -499 -136 -6 -5 -16 -9 -24 -9 -8 0 -66 -25 -129
-55 -63 -30 -116 -55 -118 -55 -10 0 -221 -130 -289 -178 -212 -149 -420 -352
-578 -563 -278 -372 -450 -818 -495 -1289 -14 -141 -6 -507 12 -595 3 -11 7
-38 11 -60 12 -84 16 -103 40 -200 175 -696 615 -1272 1241 -1623 254 -142
623 -267 878 -296 28 -3 64 -8 80 -11 17 -3 125 -7 240 -9 281 -5 479 18 720
85 699 193 1282 669 1608 1314 93 185 182 430 213 590 2 11 6 31 9 45 36 160
52 350 50 565 -3 229 -33 447 -86 629 -12 38 -22 76 -24 85 -4 18 -51 146 -85
231 -37 93 -154 312 -223 417 -135 204 -352 446 -517 573 -24 19 -53 43 -65
53 -39 35 -241 166 -330 214 -75 40 -192 96 -280 133 -142 61 -428 135 -595
155 -25 3 -56 8 -70 11 -27 6 -456 14 -462 9z"/>
</g>
</svg>
