<svg id="svg" version="1.1" xmlns="http://www.w3.org/2000/svg" xmlns:xlink="http://www.w3.org/1999/xlink" width="400" height="400" viewBox="0, 0, 400,400"><g id="svgg"><path id="path0" d="M179.003 0.299 C 177.025 0.373,175.234 0.606,175.023 0.817 C 174.812 1.028,173.427 1.200,171.944 1.200 C 170.461 1.200,169.136 1.380,169.000 1.600 C 168.864 1.820,167.874 2.000,166.800 2.000 C 165.726 2.000,164.736 2.180,164.600 2.400 C 164.464 2.620,163.474 2.800,162.400 2.800 C 161.326 2.800,160.336 2.980,160.200 3.200 C 160.064 3.420,159.344 3.600,158.600 3.600 C 157.856 3.600,157.136 3.780,157.000 4.000 C 156.864 4.220,156.054 4.400,155.200 4.400 C 154.346 4.400,153.536 4.580,153.400 4.800 C 153.264 5.020,152.612 5.200,151.950 5.200 C 151.289 5.200,150.419 5.376,150.018 5.590 C 149.617 5.805,148.729 6.023,148.045 6.075 C 147.360 6.127,146.800 6.312,146.800 6.485 C 146.800 6.658,146.159 6.800,145.376 6.800 C 144.529 6.800,144.053 6.962,144.200 7.200 C 144.344 7.433,143.945 7.600,143.247 7.600 C 142.587 7.600,141.936 7.780,141.800 8.000 C 141.664 8.220,140.933 8.400,140.176 8.400 C 139.419 8.400,138.800 8.544,138.800 8.720 C 138.800 8.896,138.395 9.054,137.900 9.071 C 137.010 9.102,133.012 10.511,128.031 12.549 C 126.618 13.127,125.133 13.600,124.731 13.600 C 124.329 13.600,124.000 13.780,124.000 14.000 C 124.000 14.220,123.640 14.400,123.200 14.400 C 122.760 14.400,122.400 14.580,122.400 14.800 C 122.400 15.020,121.950 15.200,121.400 15.200 C 120.850 15.200,120.400 15.380,120.400 15.600 C 120.400 15.820,119.950 16.000,119.400 16.000 C 118.850 16.000,118.399 16.135,118.397 16.300 C 118.393 16.659,116.456 17.600,115.720 17.600 C 115.434 17.600,115.200 17.780,115.200 18.000 C 115.200 18.220,114.851 18.400,114.424 18.400 C 113.997 18.400,113.536 18.580,113.400 18.800 C 113.264 19.020,112.848 19.204,112.476 19.209 C 112.104 19.214,111.350 19.570,110.800 20.000 C 110.250 20.430,109.525 20.786,109.188 20.791 C 108.852 20.796,108.317 21.160,108.000 21.600 C 107.656 22.077,106.965 22.400,106.288 22.400 C 105.664 22.400,105.245 22.550,105.358 22.732 C 105.471 22.915,104.942 23.309,104.182 23.607 C 103.422 23.905,102.800 24.296,102.800 24.475 C 102.800 24.654,102.440 24.800,102.000 24.800 C 101.560 24.800,101.200 24.959,101.200 25.153 C 101.200 25.497,99.704 26.130,99.100 26.043 C 98.935 26.019,98.800 26.281,98.800 26.624 C 98.800 26.967,98.636 27.146,98.435 27.022 C 98.027 26.769,95.606 28.032,95.603 28.500 C 95.601 28.665,95.358 28.800,95.062 28.800 C 94.766 28.800,94.001 29.250,93.362 29.800 C 92.723 30.349,91.975 30.799,91.700 30.800 C 91.425 30.800,91.200 30.980,91.200 31.200 C 91.200 31.420,90.964 31.600,90.675 31.600 C 90.387 31.600,89.764 31.960,89.292 32.400 C 88.820 32.840,88.196 33.200,87.905 33.200 C 87.614 33.200,87.117 33.560,86.800 34.000 C 86.483 34.440,85.975 34.800,85.672 34.800 C 85.369 34.800,84.617 35.340,84.000 36.000 C 83.383 36.660,82.684 37.200,82.446 37.200 C 82.208 37.200,81.516 37.649,80.907 38.197 C 78.768 40.124,77.397 41.199,77.076 41.200 C 76.898 41.200,76.864 41.380,77.000 41.600 C 77.136 41.820,76.877 42.000,76.424 42.000 C 75.971 42.000,75.600 42.210,75.600 42.467 C 75.600 42.723,75.495 42.828,75.366 42.699 C 75.238 42.571,74.484 43.077,73.691 43.825 C 72.899 44.572,72.186 45.120,72.108 45.041 C 72.030 44.963,70.792 46.050,69.357 47.457 C 67.823 48.961,66.553 49.903,66.274 49.743 C 66.013 49.594,65.920 49.606,66.067 49.770 C 66.214 49.933,65.357 50.952,64.163 52.034 C 62.969 53.115,62.097 54.000,62.226 54.000 C 62.356 54.000,61.863 54.491,61.131 55.092 C 60.399 55.693,59.490 56.548,59.110 56.992 C 58.731 57.436,58.236 57.980,58.011 58.200 C 53.212 62.892,49.600 66.623,49.600 66.888 C 49.600 67.073,48.565 68.276,47.300 69.562 C 46.035 70.847,44.944 72.136,44.875 72.424 C 44.806 72.713,44.374 73.276,43.914 73.675 C 43.454 74.074,43.223 74.400,43.400 74.400 C 43.577 74.400,43.335 74.736,42.861 75.147 C 42.388 75.558,42.000 76.006,42.000 76.142 C 42.000 76.387,41.084 77.580,40.100 78.616 C 39.825 78.906,39.600 79.254,39.600 79.390 C 39.600 79.525,39.150 80.086,38.600 80.636 C 38.050 81.186,37.600 81.795,37.600 81.990 C 37.600 82.184,37.369 82.581,37.087 82.871 C 36.805 83.162,36.134 84.030,35.598 84.800 C 35.061 85.570,34.302 86.549,33.911 86.975 C 33.520 87.402,33.200 87.987,33.200 88.275 C 33.200 88.564,33.048 88.800,32.863 88.800 C 32.677 88.800,32.096 89.655,31.570 90.700 C 31.044 91.745,30.296 92.891,29.907 93.247 C 29.518 93.603,29.200 94.020,29.200 94.175 C 29.200 94.329,28.694 95.208,28.076 96.128 C 27.458 97.048,26.423 98.880,25.776 100.200 C 25.129 101.520,24.465 102.660,24.300 102.733 C 24.135 102.807,24.000 103.212,24.000 103.633 C 24.000 104.055,23.820 104.400,23.600 104.400 C 23.380 104.400,23.200 104.745,23.200 105.167 C 23.200 105.588,23.065 105.993,22.900 106.067 C 22.735 106.140,21.989 107.370,21.242 108.800 C 20.495 110.230,19.685 111.532,19.442 111.694 C 19.199 111.856,19.145 111.991,19.323 111.994 C 19.500 111.997,19.365 112.400,19.023 112.889 C 18.680 113.378,18.400 114.098,18.400 114.489 C 18.400 114.880,18.220 115.200,18.000 115.200 C 17.780 115.200,17.600 115.560,17.600 116.000 C 17.600 116.440,17.420 116.800,17.200 116.800 C 16.980 116.800,16.800 117.160,16.800 117.600 C 16.800 118.040,16.620 118.400,16.400 118.400 C 16.180 118.400,16.000 118.636,16.000 118.925 C 16.000 119.214,15.640 120.195,15.200 121.106 C 14.760 122.016,14.400 123.029,14.400 123.357 C 14.400 123.685,14.220 124.064,14.000 124.200 C 13.780 124.336,13.600 124.887,13.600 125.424 C 13.600 125.961,13.420 126.400,13.200 126.400 C 12.980 126.400,12.800 126.749,12.800 127.176 C 12.800 127.603,12.656 128.042,12.479 128.151 C 12.303 128.260,11.907 129.272,11.600 130.400 C 11.293 131.528,10.897 132.540,10.721 132.649 C 10.544 132.758,10.400 133.185,10.400 133.598 C 10.400 134.010,10.192 134.855,9.939 135.474 C 9.458 136.647,9.283 137.198,9.078 138.188 C 9.011 138.512,8.831 138.902,8.678 139.055 C 8.525 139.208,8.400 139.933,8.400 140.667 C 8.400 141.400,8.220 142.000,8.000 142.000 C 7.780 142.000,7.600 142.529,7.600 143.176 C 7.600 143.823,7.420 144.464,7.200 144.600 C 6.980 144.736,6.800 145.377,6.800 146.024 C 6.800 146.671,6.620 147.200,6.400 147.200 C 6.180 147.200,6.000 147.830,6.000 148.600 C 6.000 149.370,5.820 150.000,5.600 150.000 C 5.380 150.000,5.200 150.810,5.200 151.800 C 5.200 152.790,5.020 153.600,4.800 153.600 C 4.580 153.600,4.400 154.320,4.400 155.200 C 4.400 156.080,4.220 156.800,4.000 156.800 C 3.780 156.800,3.600 157.574,3.600 158.520 C 3.600 159.466,3.437 160.411,3.239 160.620 C 2.896 160.980,2.745 161.914,2.155 167.306 C 2.016 168.575,1.745 169.711,1.551 169.830 C 1.358 169.949,1.200 171.282,1.200 172.790 C 1.200 174.629,1.035 175.588,0.700 175.700 C -0.009 175.936,-0.032 223.197,0.677 224.051 C 0.939 224.367,1.190 226.015,1.235 227.713 C 1.280 229.411,1.471 230.800,1.658 230.800 C 1.846 230.800,2.000 231.689,2.000 232.776 C 2.000 233.863,2.180 234.864,2.400 235.000 C 2.620 235.136,2.800 236.137,2.800 237.224 C 2.800 238.311,2.980 239.200,3.200 239.200 C 3.420 239.200,3.600 239.909,3.600 240.776 C 3.600 241.643,3.780 242.464,4.000 242.600 C 4.220 242.736,4.400 243.647,4.400 244.624 C 4.400 245.601,4.580 246.400,4.800 246.400 C 5.020 246.400,5.200 247.120,5.200 248.000 C 5.200 248.880,5.380 249.600,5.600 249.600 C 5.820 249.600,6.000 250.219,6.000 250.976 C 6.000 251.733,6.180 252.464,6.400 252.600 C 6.620 252.736,6.800 253.477,6.800 254.247 C 6.800 255.079,6.962 255.547,7.200 255.400 C 7.438 255.253,7.600 255.729,7.600 256.576 C 7.600 257.359,7.780 258.000,8.000 258.000 C 8.220 258.000,8.400 258.630,8.400 259.400 C 8.400 260.170,8.599 260.800,8.843 260.800 C 9.086 260.800,9.184 261.065,9.060 261.388 C 8.936 261.712,9.088 262.231,9.398 262.541 C 9.708 262.851,9.858 263.208,9.732 263.335 C 9.605 263.462,9.619 263.873,9.764 264.250 C 9.964 264.771,10.137 264.823,10.493 264.467 C 10.750 264.210,11.269 264.000,11.647 264.000 C 12.024 264.000,12.393 263.863,12.467 263.696 C 12.646 263.288,19.267 259.993,19.900 259.997 C 20.175 259.999,20.400 259.820,20.400 259.600 C 20.400 259.380,20.645 259.200,20.944 259.200 C 21.243 259.200,22.548 258.677,23.844 258.038 C 29.189 255.403,38.249 251.695,47.600 248.317 C 48.810 247.880,50.160 247.380,50.600 247.207 C 51.040 247.033,52.210 246.673,53.200 246.407 C 54.190 246.140,55.313 245.760,55.695 245.561 C 56.077 245.362,56.664 245.200,57.000 245.200 C 57.336 245.200,57.923 245.038,58.305 244.839 C 58.687 244.640,59.810 244.263,60.800 244.000 C 61.790 243.737,62.913 243.360,63.295 243.161 C 63.677 242.962,64.264 242.800,64.600 242.800 C 64.936 242.800,65.523 242.638,65.905 242.439 C 66.287 242.240,67.410 241.863,68.400 241.600 C 69.390 241.337,70.513 240.960,70.895 240.761 C 71.277 240.562,72.031 240.400,72.571 240.400 C 73.111 240.400,73.664 240.220,73.800 240.000 C 73.936 239.780,74.519 239.600,75.095 239.600 C 75.672 239.600,76.696 239.432,77.372 239.227 C 81.920 237.847,94.760 234.881,100.800 233.815 C 103.990 233.253,107.680 232.602,109.000 232.369 C 110.320 232.136,112.155 231.778,113.077 231.573 C 114.000 231.368,115.241 231.200,115.835 231.200 L 116.916 231.200 116.625 220.576 C 116.269 207.529,116.358 207.852,111.800 203.119 C 108.140 199.319,106.545 197.581,101.200 191.573 C 96.466 186.251,89.198 179.200,88.446 179.200 C 88.069 179.200,87.589 179.051,87.380 178.870 C 87.171 178.688,86.190 178.310,85.200 178.031 C 84.210 177.751,83.087 177.360,82.705 177.161 C 82.323 176.962,81.659 176.800,81.229 176.800 C 80.799 176.800,80.336 176.620,80.200 176.400 C 80.064 176.180,79.601 176.000,79.171 176.000 C 78.741 176.000,78.077 175.838,77.695 175.641 C 77.313 175.444,75.650 174.882,74.000 174.393 C 72.350 173.905,70.640 173.367,70.200 173.198 C 69.760 173.029,68.590 172.670,67.600 172.399 C 66.610 172.129,65.350 171.770,64.800 171.602 C 64.250 171.434,62.450 170.887,60.800 170.387 C 42.592 164.866,39.600 163.155,39.600 158.266 C 39.600 156.874,39.810 155.550,40.072 155.288 C 40.416 154.944,40.429 154.571,40.118 153.908 C 39.095 151.731,38.672 149.598,39.084 148.696 C 39.389 148.025,39.358 147.663,38.963 147.295 C 37.932 146.332,37.431 143.742,37.944 142.029 C 38.492 140.201,41.511 137.620,42.071 138.501 C 42.297 138.857,42.390 138.800,42.394 138.304 C 42.402 137.413,48.479 134.334,54.800 132.019 C 57.330 131.092,59.760 130.185,60.200 130.003 C 61.428 129.496,62.476 129.141,63.900 128.754 C 64.615 128.559,65.875 128.206,66.700 127.970 C 67.525 127.733,68.965 127.373,69.900 127.170 C 70.835 126.966,72.455 126.591,73.500 126.336 C 75.944 125.739,85.489 125.754,88.600 126.360 C 89.920 126.617,91.990 126.984,93.200 127.175 C 94.410 127.366,96.075 127.720,96.900 127.961 C 97.725 128.203,99.075 128.597,99.900 128.837 C 100.725 129.078,101.987 129.368,102.704 129.481 C 103.421 129.595,104.106 129.849,104.227 130.044 C 104.348 130.240,104.889 130.400,105.429 130.400 C 105.969 130.400,106.723 130.562,107.105 130.761 C 107.487 130.959,109.510 131.670,111.600 132.339 C 117.614 134.266,122.425 135.989,124.712 137.034 C 125.873 137.566,127.001 138.000,127.217 138.000 C 127.434 138.000,127.923 138.159,128.305 138.353 C 129.077 138.746,131.463 139.731,134.100 140.746 C 134.595 140.937,135.540 141.321,136.200 141.600 C 136.860 141.879,137.760 142.245,138.200 142.413 C 139.355 142.854,141.895 143.947,144.200 144.995 C 148.592 146.992,149.438 147.340,150.694 147.663 C 151.412 147.848,152.630 148.180,153.400 148.400 C 154.170 148.620,155.385 148.967,156.100 149.172 C 159.326 150.094,173.733 153.603,176.800 154.213 C 183.146 155.476,183.797 155.591,188.000 156.194 C 190.310 156.525,193.239 156.985,194.510 157.216 C 195.780 157.446,197.040 157.498,197.310 157.330 C 197.579 157.162,198.700 156.891,199.800 156.728 C 200.900 156.565,202.790 156.237,204.000 156.000 C 207.708 155.273,210.466 154.817,213.600 154.412 C 215.250 154.199,218.040 153.828,219.800 153.586 C 237.343 151.182,261.387 151.173,275.600 153.564 C 276.810 153.768,278.610 154.053,279.600 154.198 C 280.590 154.343,281.760 154.614,282.200 154.801 C 283.044 155.158,284.543 155.515,286.704 155.873 C 287.421 155.991,288.106 156.249,288.227 156.444 C 288.348 156.640,288.977 156.800,289.624 156.800 C 290.271 156.800,290.800 156.980,290.800 157.200 C 290.800 157.420,291.162 157.600,291.605 157.600 C 292.048 157.600,292.723 157.759,293.105 157.953 C 293.487 158.148,294.250 158.484,294.800 158.700 C 295.350 158.916,296.250 159.271,296.800 159.490 C 301.386 161.309,307.515 164.998,311.681 168.446 C 312.936 169.485,314.376 170.465,314.881 170.624 C 321.334 172.662,330.074 182.986,332.759 191.742 C 334.720 198.136,333.372 239.413,331.012 245.260 C 330.679 246.083,331.055 246.320,334.800 247.650 C 343.569 250.765,347.238 252.185,354.000 255.082 C 359.152 257.289,374.999 265.124,379.391 267.636 C 387.664 272.368,388.000 272.499,388.000 271.001 C 388.000 270.476,388.180 269.936,388.400 269.800 C 388.620 269.664,388.800 269.124,388.800 268.600 C 388.800 268.076,388.980 267.536,389.200 267.400 C 389.420 267.264,389.600 266.724,389.600 266.200 C 389.600 265.676,389.780 265.136,390.000 265.000 C 390.220 264.864,390.400 264.313,390.400 263.776 C 390.400 263.239,390.571 262.800,390.780 262.800 C 390.989 262.800,391.282 261.720,391.432 260.400 C 391.581 259.080,391.860 258.000,392.052 258.000 C 392.243 258.000,392.400 257.370,392.400 256.600 C 392.400 255.830,392.580 255.200,392.800 255.200 C 393.020 255.200,393.200 254.660,393.200 254.000 C 393.200 253.340,393.380 252.800,393.600 252.800 C 393.820 252.800,394.000 252.080,394.000 251.200 C 394.000 250.320,394.180 249.600,394.400 249.600 C 394.620 249.600,394.800 248.891,394.800 248.024 C 394.800 247.157,394.961 246.348,395.158 246.226 C 395.494 246.018,395.646 245.299,396.241 241.100 C 396.374 240.165,396.644 239.229,396.841 239.020 C 397.038 238.811,397.200 237.877,397.200 236.944 C 397.200 236.011,397.380 235.136,397.600 235.000 C 397.820 234.864,398.000 233.763,398.000 232.553 C 398.000 231.343,398.155 230.448,398.344 230.565 C 398.533 230.682,398.723 229.302,398.767 227.498 C 398.816 225.470,399.028 224.106,399.323 223.924 C 400.032 223.486,400.009 176.649,399.300 175.940 C 398.992 175.632,398.800 174.327,398.800 172.544 C 398.800 170.951,398.620 169.536,398.400 169.400 C 398.180 169.264,398.000 168.184,398.000 167.000 C 398.000 165.816,397.820 164.736,397.600 164.600 C 397.380 164.464,397.200 163.564,397.200 162.600 C 397.200 161.636,397.020 160.736,396.800 160.600 C 396.580 160.464,396.400 159.553,396.400 158.576 C 396.400 157.599,396.220 156.800,396.000 156.800 C 395.780 156.800,395.600 156.080,395.600 155.200 C 395.600 154.320,395.420 153.600,395.200 153.600 C 394.980 153.600,394.800 152.790,394.800 151.800 C 394.800 150.810,394.620 150.000,394.400 150.000 C 394.180 150.000,394.000 149.370,394.000 148.600 C 394.000 147.830,393.820 147.200,393.600 147.200 C 393.380 147.200,393.200 146.570,393.200 145.800 C 393.200 145.030,393.020 144.400,392.800 144.400 C 392.580 144.400,392.400 143.860,392.400 143.200 C 392.400 142.540,392.220 142.000,392.000 142.000 C 391.780 142.000,391.600 141.382,391.600 140.626 C 391.600 139.870,391.392 138.745,391.137 138.126 C 390.883 137.507,390.602 136.550,390.513 136.000 C 390.424 135.450,390.182 134.940,389.975 134.867 C 389.769 134.793,389.600 134.328,389.600 133.833 C 389.600 133.338,389.477 132.810,389.326 132.659 C 388.927 132.261,388.013 129.518,388.006 128.700 C 388.003 128.315,387.820 128.000,387.600 128.000 C 387.380 128.000,387.200 127.655,387.200 127.233 C 387.200 126.812,387.022 126.407,386.803 126.333 C 386.585 126.260,386.366 125.705,386.316 125.100 C 386.266 124.495,386.085 124.000,385.913 124.000 C 385.741 124.000,385.600 123.721,385.600 123.381 C 385.600 123.040,385.240 122.016,384.800 121.106 C 384.360 120.195,384.000 119.214,384.000 118.925 C 384.000 118.636,383.865 118.399,383.700 118.397 C 383.341 118.393,382.400 116.456,382.400 115.720 C 382.400 115.434,382.259 115.200,382.087 115.200 C 381.915 115.200,381.535 114.390,381.243 113.400 C 380.951 112.410,380.597 111.599,380.456 111.597 C 380.315 111.595,380.002 111.190,379.760 110.697 C 378.578 108.289,377.370 106.187,377.100 106.067 C 376.935 105.993,376.800 105.588,376.800 105.167 C 376.800 104.745,376.620 104.400,376.400 104.400 C 376.180 104.400,376.000 104.055,376.000 103.633 C 376.000 103.212,375.865 102.807,375.700 102.733 C 375.535 102.660,374.867 101.520,374.216 100.200 C 372.955 97.643,371.593 95.486,371.100 95.267 C 370.935 95.193,370.800 94.871,370.800 94.550 C 370.800 94.229,370.440 93.580,370.000 93.108 C 369.560 92.636,369.200 92.013,369.200 91.725 C 369.200 91.436,369.020 91.200,368.800 91.200 C 368.580 91.200,368.400 90.964,368.400 90.675 C 368.400 90.387,368.040 89.764,367.600 89.292 C 367.160 88.820,366.800 88.246,366.800 88.017 C 366.800 87.788,366.620 87.600,366.400 87.600 C 366.180 87.600,366.000 87.330,366.000 87.000 C 366.000 86.670,365.820 86.400,365.600 86.400 C 365.380 86.400,365.200 86.157,365.200 85.859 C 365.200 85.562,364.660 84.754,364.000 84.063 C 363.340 83.372,362.800 82.525,362.800 82.180 C 362.800 81.835,362.620 81.664,362.400 81.800 C 362.180 81.936,362.000 81.833,362.000 81.571 C 362.000 81.308,361.612 80.758,361.139 80.347 C 360.665 79.936,360.410 79.600,360.573 79.600 C 360.735 79.600,360.133 78.765,359.234 77.744 C 358.335 76.723,357.600 75.643,357.600 75.344 C 357.600 75.045,357.375 74.799,357.100 74.797 C 356.691 74.795,355.293 72.881,355.204 72.202 C 355.191 72.102,354.107 70.944,352.796 69.628 C 351.485 68.313,350.365 67.026,350.306 66.768 C 350.225 66.410,344.624 60.638,341.939 58.145 C 341.734 57.955,340.539 56.720,339.283 55.400 C 338.027 54.080,336.250 52.339,335.334 51.532 C 334.418 50.725,333.788 49.931,333.934 49.768 C 334.081 49.605,333.987 49.594,333.726 49.743 C 333.447 49.903,332.164 48.949,330.610 47.424 C 329.156 45.999,327.840 44.810,327.684 44.782 C 327.379 44.727,325.476 43.321,324.594 42.500 C 324.299 42.225,323.956 42.000,323.833 42.000 C 323.518 42.000,322.038 40.768,321.071 39.700 C 320.623 39.205,320.058 38.800,319.816 38.800 C 319.574 38.800,319.117 38.440,318.800 38.000 C 318.483 37.560,317.975 37.200,317.672 37.200 C 317.369 37.200,316.617 36.660,316.000 36.000 C 315.383 35.340,314.631 34.800,314.328 34.800 C 314.025 34.800,313.517 34.440,313.200 34.000 C 312.883 33.560,312.303 33.200,311.912 33.200 C 311.520 33.200,311.200 33.020,311.200 32.800 C 311.200 32.580,310.919 32.400,310.576 32.400 C 310.233 32.400,310.064 32.220,310.200 32.000 C 310.336 31.780,310.077 31.600,309.624 31.600 C 309.171 31.600,308.800 31.442,308.800 31.249 C 308.800 31.055,308.260 30.673,307.600 30.400 C 306.940 30.127,306.400 29.786,306.400 29.642 C 306.400 29.499,305.725 29.035,304.900 28.611 C 304.075 28.187,303.096 27.588,302.725 27.281 C 302.354 26.973,301.859 26.840,301.625 26.984 C 301.391 27.129,301.200 26.967,301.200 26.624 C 301.200 26.281,301.065 26.019,300.900 26.043 C 300.296 26.130,298.800 25.497,298.800 25.153 C 298.800 24.959,298.440 24.800,298.000 24.800 C 297.560 24.800,297.200 24.654,297.200 24.475 C 297.200 24.296,296.578 23.905,295.818 23.607 C 295.058 23.309,294.529 22.915,294.642 22.732 C 294.755 22.550,294.421 22.400,293.899 22.400 C 293.378 22.400,292.564 22.040,292.092 21.600 C 291.620 21.160,290.956 20.800,290.617 20.800 C 290.278 20.800,290.000 20.620,290.000 20.400 C 290.000 20.180,289.734 20.000,289.410 20.000 C 289.085 20.000,288.230 19.641,287.510 19.201 C 286.789 18.762,285.885 18.402,285.500 18.401 C 285.115 18.401,284.800 18.220,284.800 18.000 C 284.800 17.780,284.548 17.600,284.241 17.600 C 283.933 17.600,282.655 17.060,281.400 16.400 C 280.145 15.740,278.777 15.200,278.359 15.200 C 277.942 15.200,277.600 15.020,277.600 14.800 C 277.600 14.580,277.240 14.400,276.800 14.400 C 276.360 14.400,276.000 14.220,276.000 14.000 C 276.000 13.780,275.638 13.600,275.195 13.600 C 274.752 13.600,274.077 13.441,273.695 13.247 C 272.497 12.637,271.114 12.099,267.400 10.795 C 265.420 10.100,263.530 9.394,263.200 9.226 C 262.870 9.058,262.285 8.968,261.900 9.025 C 261.515 9.082,261.200 8.965,261.200 8.765 C 261.200 8.564,260.570 8.400,259.800 8.400 C 259.030 8.400,258.400 8.220,258.400 8.000 C 258.400 7.780,257.759 7.600,256.976 7.600 C 256.129 7.600,255.653 7.438,255.800 7.200 C 255.947 6.962,255.471 6.800,254.624 6.800 C 253.841 6.800,253.200 6.620,253.200 6.400 C 253.200 6.180,252.570 6.000,251.800 6.000 C 251.030 6.000,250.400 5.820,250.400 5.600 C 250.400 5.380,249.500 5.200,248.400 5.200 C 247.300 5.200,246.400 5.020,246.400 4.800 C 246.400 4.580,245.680 4.400,244.800 4.400 C 243.920 4.400,243.200 4.238,243.200 4.040 C 243.200 3.704,242.225 3.517,237.500 2.951 C 236.455 2.825,235.600 2.560,235.600 2.361 C 235.600 2.163,234.646 2.000,233.480 2.000 C 232.314 2.000,231.189 1.834,230.980 1.631 C 230.771 1.428,229.340 1.164,227.800 1.044 C 226.260 0.924,222.930 0.655,220.400 0.447 C 216.138 0.095,187.208 -0.008,179.003 0.299 M146.251 224.682 C 144.952 225.981,146.054 227.199,148.500 227.168 C 149.875 227.151,150.730 227.034,150.400 226.909 C 150.070 226.784,149.058 226.175,148.151 225.556 C 147.244 224.938,146.389 224.544,146.251 224.682 M384.000 279.000 C 384.000 279.330,384.180 279.600,384.400 279.600 C 384.620 279.600,384.800 279.330,384.800 279.000 C 384.800 278.670,384.620 278.400,384.400 278.400 C 384.180 278.400,384.000 278.670,384.000 279.000 " stroke="none" fill="#a4d4dc" fill-rule="evenodd"></path><path id="path1" d="M75.400 126.603 C 73.860 126.888,71.070 127.510,69.200 127.987 C 67.330 128.464,65.170 129.013,64.400 129.208 C 60.511 130.189,44.783 136.626,43.229 137.872 C 43.135 137.947,43.098 138.891,43.147 139.970 C 43.196 141.048,43.048 142.047,42.818 142.189 C 42.588 142.331,42.400 142.977,42.400 143.624 C 42.400 144.271,42.220 144.800,42.000 144.800 C 41.780 144.800,41.600 145.160,41.600 145.600 C 41.600 146.040,41.441 146.400,41.246 146.400 C 40.230 146.400,39.510 149.284,40.009 151.351 C 40.281 152.478,40.529 154.840,40.560 156.600 C 40.645 161.447,41.701 162.693,47.600 164.916 C 48.150 165.124,48.913 165.452,49.295 165.647 C 49.677 165.841,50.341 166.000,50.771 166.000 C 51.201 166.000,51.664 166.180,51.800 166.400 C 51.936 166.620,52.476 166.800,53.000 166.800 C 53.524 166.800,54.064 166.980,54.200 167.200 C 54.336 167.420,54.887 167.600,55.424 167.600 C 55.961 167.600,56.400 167.780,56.400 168.000 C 56.400 168.220,56.940 168.400,57.600 168.400 C 58.260 168.400,58.800 168.580,58.800 168.800 C 58.800 169.020,59.419 169.200,60.176 169.200 C 60.933 169.200,61.664 169.380,61.800 169.600 C 61.936 169.820,62.476 170.000,63.000 170.000 C 63.524 170.000,64.064 170.180,64.200 170.400 C 64.336 170.620,64.966 170.800,65.600 170.800 C 66.234 170.800,66.864 170.980,67.000 171.200 C 67.136 171.420,67.777 171.600,68.424 171.600 C 69.071 171.600,69.600 171.780,69.600 172.000 C 69.600 172.220,70.129 172.400,70.776 172.400 C 71.423 172.400,72.064 172.580,72.200 172.800 C 72.336 173.020,72.876 173.200,73.400 173.200 C 73.924 173.200,74.464 173.380,74.600 173.600 C 74.736 173.820,75.287 174.000,75.824 174.000 C 76.361 174.000,76.800 174.180,76.800 174.400 C 76.800 174.620,77.340 174.800,78.000 174.800 C 78.660 174.800,79.200 174.980,79.200 175.200 C 79.200 175.420,79.729 175.600,80.376 175.600 C 81.023 175.600,81.664 175.780,81.800 176.000 C 81.936 176.220,82.476 176.400,83.000 176.400 C 83.524 176.400,84.064 176.580,84.200 176.800 C 84.336 177.020,84.821 177.200,85.277 177.200 C 88.297 177.200,95.928 183.650,103.735 192.801 C 110.325 200.527,117.063 207.397,118.665 208.026 C 119.399 208.314,120.001 208.651,120.001 208.775 C 120.002 208.899,120.992 209.450,122.200 210.000 C 123.408 210.550,124.398 211.135,124.399 211.300 C 124.399 211.465,124.745 211.600,125.167 211.600 C 125.588 211.600,125.993 211.739,126.067 211.909 C 126.140 212.079,127.280 212.761,128.600 213.425 C 131.712 214.988,136.328 217.551,137.600 218.422 C 138.624 219.123,140.639 220.294,143.300 221.736 C 144.125 222.183,144.800 222.695,144.800 222.874 C 144.800 223.053,145.160 223.200,145.600 223.200 C 146.040 223.200,146.400 223.380,146.400 223.600 C 146.400 223.820,146.760 224.000,147.200 224.000 C 147.640 224.000,148.000 224.180,148.000 224.400 C 148.000 224.620,148.278 224.800,148.617 224.800 C 148.956 224.800,149.620 225.160,150.092 225.600 C 150.564 226.040,151.187 226.400,151.475 226.400 C 153.600 226.400,151.519 227.481,148.705 227.839 C 145.688 228.223,145.201 228.566,145.192 230.314 C 145.179 232.815,143.322 247.587,142.013 255.600 C 139.054 273.726,137.718 279.177,134.665 285.600 C 133.019 289.063,128.939 293.335,127.561 293.040 C 127.032 292.926,123.900 292.545,120.600 292.193 C 108.193 290.868,101.521 289.958,100.758 289.487 C 98.316 287.978,99.859 285.353,105.409 281.575 C 112.038 277.063,113.634 273.038,115.788 255.400 C 116.381 250.541,117.408 232.075,117.103 231.769 C 116.996 231.663,113.870 232.132,110.155 232.811 C 106.440 233.490,102.455 234.215,101.300 234.423 C 100.145 234.630,98.255 234.970,97.100 235.178 C 93.554 235.816,91.098 236.378,84.700 238.016 C 83.875 238.227,82.480 238.580,81.600 238.800 C 80.720 239.020,79.280 239.380,78.400 239.600 C 76.544 240.064,74.074 240.692,71.800 241.279 C 70.920 241.506,69.840 241.830,69.400 242.000 C 68.960 242.170,67.790 242.530,66.800 242.800 C 65.810 243.070,64.640 243.432,64.200 243.604 C 63.760 243.777,61.510 244.497,59.200 245.205 C 43.664 249.968,32.795 254.303,16.965 262.051 C 13.426 263.783,10.320 265.200,10.062 265.200 C 9.709 265.200,9.712 265.391,10.077 265.974 C 10.343 266.400,10.723 266.647,10.923 266.524 C 11.123 266.401,11.172 266.659,11.032 267.100 C 10.841 267.701,10.993 267.957,11.642 268.127 C 12.279 268.294,12.449 268.569,12.290 269.177 C 12.161 269.669,12.308 270.133,12.653 270.326 C 12.995 270.517,13.127 270.925,12.974 271.323 C 12.832 271.693,12.527 271.879,12.296 271.736 C 12.057 271.588,11.995 271.667,12.151 271.921 C 12.302 272.165,12.688 272.264,13.009 272.141 C 13.785 271.843,14.289 273.174,13.569 273.619 C 13.128 273.892,13.155 274.008,13.711 274.221 C 14.090 274.367,14.400 274.826,14.400 275.243 C 14.400 275.659,14.603 276.000,14.850 276.000 C 15.137 276.000,15.213 276.436,15.060 277.200 C 14.880 278.099,14.968 278.400,15.410 278.400 C 15.735 278.400,16.000 278.580,16.000 278.800 C 16.000 279.020,15.786 279.200,15.524 279.200 C 15.261 279.200,15.396 279.464,15.824 279.787 C 16.251 280.110,16.458 280.380,16.284 280.387 C 16.111 280.394,16.336 280.794,16.784 281.275 C 17.233 281.757,17.600 282.387,17.600 282.675 C 17.600 282.964,17.780 283.200,18.000 283.200 C 18.220 283.200,18.400 283.650,18.400 284.200 C 18.400 284.750,18.580 285.200,18.800 285.200 C 19.020 285.200,19.200 285.560,19.200 286.000 C 19.200 286.440,19.380 286.800,19.600 286.800 C 19.820 286.800,20.000 287.160,20.000 287.600 C 20.000 288.040,20.199 288.400,20.443 288.400 C 20.686 288.400,20.784 288.665,20.659 288.989 C 20.535 289.314,20.741 289.774,21.117 290.013 C 21.610 290.326,21.661 290.505,21.300 290.657 C 20.518 290.985,20.714 291.600,21.600 291.600 C 22.040 291.600,22.400 291.791,22.400 292.024 C 22.400 292.257,22.175 292.320,21.900 292.165 C 21.500 291.939,21.500 291.990,21.900 292.421 C 22.175 292.718,22.400 293.374,22.400 293.880 C 22.400 294.533,22.632 294.800,23.200 294.800 C 23.644 294.800,24.000 295.067,24.000 295.400 C 24.000 295.730,24.180 296.000,24.400 296.000 C 24.620 296.000,24.800 296.270,24.800 296.600 C 24.800 296.930,25.003 297.200,25.250 297.200 C 25.537 297.200,25.619 297.672,25.477 298.500 C 25.354 299.215,25.347 299.575,25.460 299.300 C 25.787 298.508,26.400 298.719,26.400 299.624 C 26.400 300.077,26.222 300.337,26.005 300.203 C 25.776 300.062,25.712 300.226,25.852 300.591 C 26.067 301.152,26.160 301.144,26.677 300.512 C 27.222 299.846,27.247 299.858,27.067 300.700 C 26.954 301.229,27.067 301.600,27.341 301.600 C 28.069 301.600,28.865 303.164,28.586 304.044 C 28.299 304.948,29.079 306.122,29.707 305.734 C 29.949 305.584,30.004 305.670,29.838 305.938 C 29.681 306.192,29.738 306.400,29.964 306.400 C 30.190 306.400,30.271 306.670,30.145 307.000 C 30.018 307.330,30.114 307.600,30.357 307.600 C 30.601 307.600,30.803 307.915,30.806 308.300 C 30.811 308.898,30.869 308.913,31.200 308.400 C 31.529 307.891,31.589 307.910,31.594 308.524 C 31.597 308.922,31.780 309.136,32.000 309.000 C 32.220 308.864,32.400 309.018,32.400 309.343 C 32.400 309.668,32.175 310.024,31.900 310.135 C 31.625 310.246,31.760 310.357,32.200 310.381 C 32.943 310.422,34.923 311.600,34.249 311.600 C 34.082 311.600,34.343 312.159,34.829 312.841 C 35.545 313.846,35.609 314.147,35.168 314.420 C 34.739 314.685,34.791 314.821,35.411 315.056 C 36.485 315.463,37.200 316.220,37.200 316.949 C 37.200 317.282,37.560 317.807,37.999 318.114 C 38.439 318.422,38.837 319.140,38.884 319.709 C 38.931 320.278,39.157 320.711,39.385 320.672 C 39.613 320.632,39.757 320.819,39.705 321.086 C 39.649 321.372,39.861 321.475,40.224 321.335 C 40.970 321.049,42.063 322.360,41.768 323.188 C 41.652 323.511,41.669 323.665,41.805 323.529 C 42.209 323.124,45.270 326.363,44.959 326.866 C 44.795 327.132,44.853 327.215,45.096 327.064 C 45.557 326.779,46.046 327.707,45.853 328.500 C 45.786 328.775,45.810 328.854,45.907 328.676 C 46.200 328.136,47.563 329.632,47.330 330.238 C 47.212 330.547,47.314 330.800,47.557 330.800 C 47.801 330.800,48.000 331.070,48.000 331.400 C 48.000 331.730,48.150 332.000,48.332 332.000 C 48.515 332.000,48.906 332.450,49.200 333.000 C 49.494 333.550,50.075 334.000,50.491 334.000 C 50.961 334.000,51.139 334.175,50.962 334.462 C 50.787 334.744,50.852 334.815,51.128 334.645 C 51.850 334.199,58.039 340.654,58.658 342.500 C 58.788 342.885,59.232 343.200,59.647 343.200 C 60.061 343.200,60.400 343.380,60.400 343.600 C 60.400 343.820,60.583 344.000,60.807 344.000 C 61.657 344.000,63.943 346.749,63.248 346.934 C 62.892 347.029,63.073 347.128,63.651 347.154 C 64.823 347.205,65.688 348.010,65.472 348.849 C 65.395 349.152,65.407 349.264,65.500 349.098 C 65.771 348.610,66.384 349.177,66.175 349.722 C 65.989 350.205,68.300 351.875,68.900 351.692 C 69.065 351.641,69.200 351.870,69.200 352.200 C 69.200 352.530,69.430 352.800,69.712 352.800 C 69.993 352.800,70.483 353.160,70.800 353.600 C 71.117 354.040,71.617 354.400,71.912 354.400 C 72.212 354.400,72.323 354.601,72.164 354.858 C 71.965 355.181,72.195 355.238,72.940 355.051 C 73.894 354.811,74.446 355.284,73.700 355.701 C 73.535 355.793,73.635 355.810,73.922 355.738 C 74.522 355.589,76.475 357.392,76.109 357.758 C 75.976 357.891,76.366 358.000,76.976 358.000 C 77.781 358.000,78.024 358.159,77.863 358.580 C 77.709 358.981,77.833 359.086,78.267 358.919 C 78.762 358.729,78.842 358.880,78.650 359.639 C 78.516 360.168,78.511 360.375,78.637 360.100 C 78.983 359.347,79.652 359.499,79.518 360.300 C 79.451 360.699,79.620 360.955,79.911 360.896 C 80.192 360.839,80.527 361.064,80.654 361.396 C 80.781 361.728,81.166 362.000,81.509 362.000 C 81.853 362.000,82.016 362.117,81.873 362.260 C 81.487 362.646,82.869 363.573,83.853 363.587 C 84.392 363.595,84.798 363.932,84.953 364.500 C 85.146 365.203,85.278 365.279,85.558 364.845 C 85.850 364.391,86.082 364.446,86.833 365.145 C 87.338 365.615,87.985 366.000,88.272 366.000 C 88.559 366.000,89.018 366.360,89.293 366.800 C 89.568 367.240,90.032 367.600,90.325 367.600 C 91.051 367.600,92.000 368.604,92.000 369.371 C 92.000 369.717,92.193 370.000,92.428 370.000 C 92.663 370.000,93.663 370.555,94.650 371.234 C 95.637 371.913,96.699 372.371,97.010 372.251 C 97.322 372.132,97.842 372.300,98.167 372.624 C 98.492 372.949,98.992 373.166,99.279 373.107 C 99.565 373.048,99.778 373.297,99.751 373.659 C 99.724 374.022,100.141 374.518,100.677 374.762 C 101.270 375.033,101.554 375.049,101.402 374.803 C 101.265 374.581,101.523 374.400,101.976 374.400 C 102.429 374.400,102.800 374.580,102.800 374.800 C 102.800 375.020,103.070 375.200,103.400 375.200 C 103.730 375.200,104.000 375.380,104.000 375.600 C 104.000 375.820,104.249 376.000,104.553 376.000 C 104.858 376.000,105.209 376.390,105.333 376.866 C 105.519 377.575,105.666 377.643,106.146 377.245 C 106.625 376.848,106.781 376.909,106.993 377.579 C 107.137 378.031,107.512 378.400,107.827 378.400 C 108.142 378.400,108.400 378.580,108.400 378.800 C 108.400 379.020,108.749 379.200,109.176 379.200 C 109.603 379.200,110.064 379.380,110.200 379.600 C 110.336 379.820,110.627 380.000,110.847 380.000 C 111.067 380.000,111.136 379.820,111.000 379.600 C 110.864 379.380,110.943 379.200,111.176 379.200 C 111.409 379.200,111.600 379.482,111.600 379.827 C 111.600 380.272,111.832 380.380,112.400 380.200 C 112.859 380.054,113.200 380.128,113.200 380.373 C 113.200 380.608,113.560 380.800,114.000 380.800 C 114.440 380.800,114.800 380.980,114.800 381.200 C 114.800 381.420,115.160 381.600,115.600 381.600 C 116.040 381.600,116.400 381.780,116.400 382.000 C 116.400 382.220,116.738 382.400,117.151 382.400 C 118.032 382.400,118.925 383.329,118.497 383.801 C 118.333 383.980,118.502 384.019,118.871 383.888 C 119.240 383.756,119.748 383.896,120.000 384.200 C 120.252 384.504,120.715 384.654,121.029 384.533 C 121.355 384.409,121.600 384.553,121.600 384.870 C 121.600 385.185,122.068 385.464,122.682 385.515 C 123.278 385.564,123.944 385.784,124.162 386.002 C 124.680 386.520,125.320 386.518,125.000 386.000 C 124.864 385.780,124.943 385.600,125.176 385.600 C 125.409 385.600,125.600 385.780,125.600 386.000 C 125.600 386.220,126.151 386.400,126.824 386.400 C 127.537 386.400,127.944 386.567,127.800 386.800 C 127.327 387.565,128.034 388.024,128.684 387.374 C 129.188 386.869,129.381 386.846,129.637 387.260 C 129.814 387.545,130.372 387.784,130.879 387.790 C 131.398 387.795,131.756 388.018,131.700 388.300 C 131.637 388.613,132.058 388.800,132.824 388.800 C 133.497 388.800,133.942 388.971,133.812 389.180 C 133.683 389.389,133.964 389.767,134.437 390.020 C 135.114 390.382,135.231 390.373,134.986 389.978 C 134.625 389.393,135.389 389.769,136.500 390.723 C 136.885 391.053,137.200 391.211,137.200 391.072 C 137.200 390.933,137.656 390.993,138.213 391.205 C 138.921 391.474,139.479 391.441,140.065 391.095 C 140.734 390.701,140.941 390.702,141.086 391.100 C 141.185 391.375,141.785 391.600,142.419 391.600 C 143.161 391.600,143.724 391.884,143.998 392.396 C 144.364 393.079,144.543 393.122,145.264 392.696 C 145.934 392.301,146.141 392.301,146.286 392.700 C 146.385 392.975,147.070 393.200,147.806 393.200 C 148.771 393.200,149.214 393.413,149.387 393.960 C 149.565 394.519,150.005 394.720,151.054 394.720 C 151.838 394.720,152.678 394.918,152.920 395.160 C 153.471 395.711,155.338 395.747,155.000 395.200 C 154.864 394.980,154.933 394.800,155.153 394.800 C 155.373 394.800,155.664 394.980,155.800 395.200 C 155.936 395.420,156.937 395.600,158.024 395.600 C 159.111 395.600,160.000 395.780,160.000 396.000 C 160.000 396.220,160.810 396.400,161.800 396.400 C 162.790 396.400,163.600 396.558,163.600 396.751 C 163.600 397.269,165.569 397.902,167.400 397.973 C 168.280 398.007,169.060 398.207,169.133 398.418 C 169.207 398.628,169.622 398.800,170.057 398.800 C 170.492 398.800,170.736 398.620,170.600 398.400 C 170.449 398.156,171.055 398.000,172.153 398.000 C 173.143 398.000,174.064 398.180,174.200 398.400 C 174.336 398.620,175.772 398.800,177.390 398.800 C 179.389 398.800,180.387 398.960,180.500 399.300 C 180.757 400.072,219.090 400.025,219.568 399.252 C 220.003 398.548,223.193 398.566,223.692 399.276 C 223.982 399.688,224.104 399.693,224.264 399.300 C 224.375 399.025,224.812 398.800,225.233 398.800 C 225.655 398.800,226.000 398.620,226.000 398.400 C 226.000 398.180,227.001 398.000,228.224 398.000 C 229.886 398.000,230.376 398.126,230.165 398.500 C 229.939 398.900,229.990 398.900,230.421 398.500 C 230.718 398.225,231.385 398.000,231.904 398.000 C 232.431 398.000,232.738 397.823,232.600 397.600 C 232.457 397.369,232.828 397.203,233.476 397.206 C 234.349 397.211,234.466 397.299,234.000 397.600 C 233.504 397.921,233.538 397.987,234.200 397.981 C 235.186 397.973,236.494 397.031,236.094 396.617 C 235.932 396.450,236.653 396.379,237.695 396.459 C 238.961 396.557,239.653 396.438,239.782 396.102 C 239.908 395.775,240.825 395.600,242.411 395.600 C 243.933 395.600,244.754 395.450,244.600 395.200 C 244.282 394.685,244.650 394.692,245.633 395.218 C 246.447 395.653,248.285 394.818,247.731 394.264 C 247.586 394.119,248.137 394.000,248.957 394.000 C 249.849 394.000,250.348 393.839,250.200 393.600 C 250.051 393.358,250.596 393.200,251.576 393.200 C 252.469 393.200,253.200 393.020,253.200 392.800 C 253.200 392.580,253.830 392.400,254.600 392.400 C 255.370 392.400,256.000 392.220,256.000 392.000 C 256.000 391.413,257.995 391.511,258.027 392.100 C 258.042 392.375,258.249 392.195,258.488 391.700 C 258.913 390.820,260.400 390.421,260.400 391.187 C 260.400 391.401,260.670 391.471,261.000 391.345 C 261.330 391.218,261.600 390.864,261.600 390.557 C 261.600 390.251,261.889 390.000,262.243 390.000 C 262.674 390.000,262.803 390.216,262.634 390.657 C 262.423 391.206,262.482 391.230,262.991 390.808 C 263.326 390.530,263.600 390.033,263.600 389.704 C 263.600 389.303,263.864 389.176,264.401 389.316 C 264.885 389.443,265.340 389.279,265.550 388.903 C 265.766 388.518,266.214 388.363,266.724 388.496 C 267.222 388.626,267.633 388.492,267.762 388.156 C 267.879 387.850,268.420 387.600,268.964 387.600 C 269.508 387.600,270.069 387.413,270.210 387.184 C 270.352 386.955,270.812 386.877,271.234 387.011 C 271.662 387.147,272.000 387.066,272.000 386.827 C 272.000 386.592,272.371 386.400,272.824 386.400 C 273.376 386.400,273.548 386.565,273.347 386.900 C 273.015 387.452,274.407 386.462,274.894 385.800 C 275.070 385.561,275.190 385.625,275.194 385.961 C 275.198 386.338,275.445 386.240,275.947 385.661 C 276.358 385.188,276.876 384.800,277.098 384.800 C 277.320 384.800,277.733 384.522,278.015 384.182 C 278.297 383.842,278.754 383.650,279.031 383.757 C 279.308 383.863,279.632 383.694,279.752 383.381 C 279.873 383.064,280.241 382.918,280.585 383.050 C 280.923 383.179,281.200 383.086,281.200 382.843 C 281.200 382.599,281.650 382.400,282.200 382.400 C 282.750 382.400,283.200 382.220,283.200 382.000 C 283.200 381.780,283.560 381.600,284.000 381.600 C 284.440 381.600,284.800 381.420,284.800 381.200 C 284.800 380.980,285.149 380.800,285.576 380.800 C 286.003 380.800,286.474 380.604,286.622 380.365 C 286.769 380.126,287.230 380.019,287.645 380.128 C 288.121 380.252,288.400 380.117,288.400 379.763 C 288.400 379.065,289.060 379.022,289.340 379.700 C 289.465 380.003,289.654 379.845,289.820 379.300 C 289.981 378.769,290.412 378.400,290.870 378.400 C 291.298 378.400,291.560 378.258,291.452 378.085 C 291.345 377.912,291.830 377.521,292.529 377.217 C 293.228 376.913,293.890 376.557,294.000 376.427 C 294.110 376.296,295.100 375.744,296.200 375.200 C 297.300 374.656,298.317 374.047,298.460 373.847 C 298.602 373.647,299.007 373.594,299.360 373.729 C 299.768 373.886,300.000 373.762,300.000 373.387 C 300.000 373.064,300.338 372.800,300.751 372.800 C 301.164 372.800,301.717 372.541,301.979 372.225 C 303.335 370.591,314.105 364.114,314.332 364.796 C 314.407 365.021,314.625 365.108,314.817 364.990 C 315.008 364.871,315.081 364.555,314.978 364.286 C 314.874 364.017,315.253 363.450,315.819 363.025 C 316.385 362.600,317.332 361.824,317.924 361.300 C 318.516 360.776,319.810 359.785,320.800 359.097 C 321.790 358.409,322.660 357.701,322.733 357.523 C 322.807 357.345,323.122 357.200,323.433 357.200 C 323.745 357.200,324.000 357.020,324.000 356.800 C 324.000 356.580,324.204 356.400,324.453 356.400 C 324.702 356.400,325.233 356.023,325.632 355.563 C 326.031 355.103,326.545 354.842,326.774 354.984 C 327.025 355.139,327.096 354.994,326.953 354.621 C 326.822 354.279,326.916 354.000,327.162 354.000 C 327.408 354.000,329.002 352.694,330.704 351.099 C 334.873 347.192,337.114 345.499,337.665 345.840 C 337.941 346.011,338.015 345.947,337.850 345.681 C 337.544 345.186,340.014 342.339,344.155 338.412 C 345.671 336.976,347.400 335.134,347.998 334.320 C 349.470 332.315,352.554 328.689,355.100 325.970 C 356.255 324.737,357.200 323.534,357.200 323.297 C 357.200 323.060,357.350 322.807,357.532 322.733 C 357.715 322.660,358.840 321.184,360.032 319.453 C 361.225 317.722,362.687 315.652,363.283 314.853 C 365.258 312.204,368.000 307.981,368.000 307.588 C 368.000 307.374,368.180 307.200,368.400 307.200 C 368.620 307.200,368.800 307.010,368.800 306.778 C 368.800 306.546,369.520 305.296,370.400 304.000 C 371.280 302.704,372.000 301.454,372.000 301.222 C 372.000 300.990,372.180 300.800,372.400 300.800 C 372.620 300.800,372.800 300.530,372.800 300.200 C 372.800 299.870,372.980 299.600,373.200 299.600 C 373.420 299.600,373.600 299.330,373.600 299.000 C 373.600 298.670,373.780 298.400,374.000 298.400 C 374.220 298.400,374.400 298.040,374.400 297.600 C 374.400 297.160,374.580 296.800,374.800 296.800 C 375.020 296.800,375.200 296.535,375.200 296.212 C 375.200 295.889,375.532 295.034,375.937 294.312 C 377.923 290.776,381.332 283.744,382.390 281.000 C 382.815 279.898,384.339 276.518,385.247 274.662 C 385.661 273.816,386.000 272.904,386.000 272.635 C 386.000 271.862,370.224 263.217,362.000 259.484 C 360.790 258.935,358.410 257.836,356.711 257.043 C 355.013 256.249,353.526 255.600,353.407 255.600 C 353.288 255.600,352.383 255.240,351.396 254.800 C 350.408 254.360,348.835 253.664,347.900 253.254 C 346.519 252.649,332.859 247.609,330.860 246.968 C 330.265 246.777,330.281 246.507,331.330 238.600 C 333.164 224.788,333.474 196.798,331.852 191.600 C 329.226 183.188,320.485 173.046,314.132 171.041 C 313.655 170.890,312.485 170.043,311.532 169.158 C 308.939 166.750,305.402 164.434,300.800 162.131 C 299.590 161.525,298.540 160.888,298.467 160.715 C 298.393 160.542,297.999 160.400,297.590 160.400 C 297.182 160.400,296.736 160.220,296.600 160.000 C 296.464 159.780,295.913 159.600,295.376 159.600 C 294.839 159.600,294.400 159.420,294.400 159.200 C 294.400 158.980,294.038 158.800,293.595 158.800 C 293.152 158.800,292.432 158.620,291.995 158.400 C 291.558 158.180,290.842 157.820,290.405 157.600 C 289.968 157.380,289.169 157.200,288.629 157.200 C 288.089 157.200,287.536 157.020,287.400 156.800 C 287.264 156.580,286.544 156.400,285.800 156.400 C 285.056 156.400,284.348 156.240,284.227 156.044 C 284.106 155.849,283.331 155.574,282.504 155.433 C 281.677 155.293,280.055 155.003,278.900 154.789 C 269.330 153.015,263.849 152.600,250.000 152.600 C 232.744 152.600,220.267 153.665,205.300 156.414 C 204.145 156.626,202.255 156.960,201.100 157.156 C 199.945 157.352,198.280 157.733,197.400 158.004 C 195.736 158.515,193.975 158.354,185.600 156.924 C 178.636 155.735,178.142 155.639,172.500 154.374 C 171.455 154.140,169.924 153.851,169.097 153.732 C 168.271 153.613,167.495 153.355,167.374 153.158 C 167.252 152.961,166.544 152.800,165.800 152.800 C 165.056 152.800,164.336 152.620,164.200 152.400 C 164.064 152.180,163.344 152.000,162.600 152.000 C 161.856 152.000,161.136 151.820,161.000 151.600 C 160.864 151.380,160.234 151.200,159.600 151.200 C 158.966 151.200,158.336 151.020,158.200 150.800 C 158.064 150.580,157.434 150.400,156.800 150.400 C 156.166 150.400,155.536 150.220,155.400 150.000 C 155.264 149.780,154.544 149.600,153.800 149.600 C 153.056 149.600,152.336 149.420,152.200 149.200 C 152.064 148.980,151.670 148.800,151.324 148.800 C 150.978 148.800,148.874 147.926,146.648 146.858 C 140.982 144.141,140.944 144.124,129.758 139.658 C 116.467 134.352,110.588 132.337,99.749 129.373 C 94.901 128.047,94.726 128.013,84.567 126.389 C 81.470 125.894,78.922 125.953,75.400 126.603 M76.017 133.304 C 77.268 134.085,77.059 136.075,75.638 136.914 C 73.369 138.254,69.404 137.551,68.946 135.726 C 68.312 133.201,73.182 131.533,76.017 133.304 " stroke="none" fill="#f0f0e6" fill-rule="evenodd"></path><path id="path2" d="M69.854 133.629 C 68.751 134.496,68.543 135.389,69.206 136.400 C 69.486 136.828,69.529 136.634,69.354 135.722 C 69.136 134.585,69.258 134.353,70.454 133.623 C 71.194 133.172,71.599 132.802,71.354 132.801 C 71.109 132.801,70.434 133.173,69.854 133.629 M42.765 137.900 C 42.571 139.538,42.665 142.284,42.909 142.133 C 43.202 141.951,43.231 137.600,42.938 137.600 C 42.862 137.600,42.784 137.735,42.765 137.900 M147.233 146.957 C 147.850 147.538,150.559 148.800,151.189 148.800 C 151.609 148.800,152.064 148.980,152.200 149.200 C 152.336 149.420,153.056 149.600,153.800 149.600 C 154.544 149.600,155.264 149.780,155.400 150.000 C 155.536 150.220,156.166 150.400,156.800 150.400 C 157.434 150.400,158.064 150.580,158.200 150.800 C 158.336 151.020,158.966 151.200,159.600 151.200 C 160.234 151.200,160.864 151.380,161.000 151.600 C 161.136 151.820,161.856 152.000,162.600 152.000 C 163.344 152.000,164.064 152.180,164.200 152.400 C 164.336 152.620,165.056 152.800,165.800 152.800 C 166.544 152.800,167.252 152.961,167.374 153.158 C 167.495 153.355,168.271 153.613,169.097 153.732 C 169.924 153.851,171.455 154.140,172.500 154.374 C 178.691 155.762,179.447 155.907,186.000 156.960 C 188.310 157.331,191.175 157.807,192.367 158.017 C 193.558 158.228,195.088 158.384,195.767 158.365 C 197.380 158.319,193.435 157.449,188.800 156.829 C 185.564 156.396,182.951 155.944,179.400 155.200 C 178.520 155.016,176.720 154.657,175.400 154.403 C 172.924 153.926,171.362 153.569,168.600 152.849 C 167.720 152.620,165.830 152.142,164.400 151.787 C 156.692 149.876,148.664 147.580,148.220 147.160 C 148.011 146.962,147.666 146.800,147.453 146.800 C 147.241 146.800,147.142 146.871,147.233 146.957 M245.919 152.298 C 247.744 152.372,250.624 152.372,252.319 152.297 C 254.014 152.222,252.520 152.161,249.000 152.162 C 245.480 152.162,244.094 152.224,245.919 152.298 M232.600 152.822 C 231.589 153.016,232.178 153.051,234.200 152.916 C 235.960 152.799,237.475 152.635,237.567 152.551 C 237.844 152.300,234.311 152.492,232.600 152.822 M262.433 152.544 C 262.525 152.624,263.680 152.789,265.000 152.912 C 266.491 153.051,267.021 153.011,266.400 152.807 C 265.412 152.484,262.111 152.265,262.433 152.544 M223.000 153.596 C 222.502 153.808,223.031 153.851,224.400 153.712 C 225.610 153.589,226.675 153.423,226.767 153.344 C 227.111 153.047,223.767 153.270,223.000 153.596 M270.833 153.343 C 270.925 153.421,271.630 153.601,272.400 153.742 C 273.385 153.923,273.622 153.882,273.200 153.606 C 272.658 153.250,270.437 153.003,270.833 153.343 M216.800 154.400 C 216.008 154.654,215.967 154.720,216.600 154.720 C 217.040 154.720,217.850 154.576,218.400 154.400 C 219.192 154.146,219.233 154.080,218.600 154.080 C 218.160 154.080,217.350 154.224,216.800 154.400 M276.800 154.400 C 277.130 154.613,277.670 154.788,278.000 154.788 C 278.533 154.788,278.533 154.745,278.000 154.400 C 277.670 154.187,277.130 154.012,276.800 154.012 C 276.267 154.012,276.267 154.055,276.800 154.400 M211.000 155.200 C 209.981 155.638,211.032 155.638,212.400 155.200 C 213.204 154.943,213.243 154.877,212.600 154.868 C 212.160 154.862,211.440 155.011,211.000 155.200 M40.243 155.833 C 38.191 161.180,43.160 165.021,57.000 168.786 C 58.951 169.317,75.338 174.316,76.100 174.613 C 76.509 174.772,76.800 174.702,76.800 174.443 C 76.800 174.199,76.361 174.000,75.824 174.000 C 75.287 174.000,74.736 173.820,74.600 173.600 C 74.464 173.380,73.924 173.200,73.400 173.200 C 72.876 173.200,72.336 173.020,72.200 172.800 C 72.064 172.580,71.423 172.400,70.776 172.400 C 70.129 172.400,69.600 172.220,69.600 172.000 C 69.600 171.780,69.071 171.600,68.424 171.600 C 67.777 171.600,67.136 171.420,67.000 171.200 C 66.864 170.980,66.234 170.800,65.600 170.800 C 64.966 170.800,64.336 170.620,64.200 170.400 C 64.064 170.180,63.524 170.000,63.000 170.000 C 62.476 170.000,61.936 169.820,61.800 169.600 C 61.664 169.380,60.933 169.200,60.176 169.200 C 59.419 169.200,58.800 169.020,58.800 168.800 C 58.800 168.580,58.260 168.400,57.600 168.400 C 56.940 168.400,56.400 168.220,56.400 168.000 C 56.400 167.780,55.961 167.600,55.424 167.600 C 54.887 167.600,54.336 167.420,54.200 167.200 C 54.064 166.980,53.524 166.800,53.000 166.800 C 52.476 166.800,51.936 166.620,51.800 166.400 C 51.664 166.180,51.201 166.000,50.771 166.000 C 50.341 166.000,49.677 165.841,49.295 165.647 C 48.913 165.452,48.150 165.124,47.600 164.916 C 41.971 162.795,40.571 161.303,40.644 157.500 C 40.691 155.063,40.632 154.818,40.243 155.833 M206.400 156.000 C 205.867 156.345,205.867 156.388,206.400 156.388 C 206.730 156.388,207.270 156.213,207.600 156.000 C 208.133 155.655,208.133 155.612,207.600 155.612 C 207.270 155.612,206.730 155.787,206.400 156.000 M202.000 156.800 C 201.467 157.145,201.467 157.188,202.000 157.188 C 202.330 157.188,202.870 157.013,203.200 156.800 C 203.733 156.455,203.733 156.412,203.200 156.412 C 202.870 156.412,202.330 156.587,202.000 156.800 M303.600 163.564 C 304.150 164.014,304.780 164.383,305.000 164.385 C 305.428 164.388,304.705 163.834,303.400 163.160 C 302.869 162.885,302.936 163.021,303.600 163.564 M305.600 164.511 C 305.600 164.587,306.185 165.078,306.900 165.601 C 307.704 166.190,307.984 166.287,307.633 165.855 C 307.100 165.199,305.600 164.207,305.600 164.511 M313.200 170.600 C 313.750 170.914,314.380 171.172,314.600 171.172 C 314.820 171.172,314.550 170.914,314.000 170.600 C 313.450 170.286,312.820 170.028,312.600 170.028 C 312.380 170.028,312.650 170.286,313.200 170.600 M315.200 171.339 C 315.200 171.431,316.379 172.274,317.821 173.213 C 320.543 174.987,325.592 179.610,326.321 180.997 C 326.552 181.435,326.849 181.684,326.983 181.551 C 327.389 181.144,321.605 175.233,319.230 173.628 C 316.797 171.984,315.200 171.077,315.200 171.339 M78.000 175.200 C 78.776 175.701,79.200 175.701,79.200 175.200 C 79.200 174.980,78.795 174.803,78.300 174.806 C 77.572 174.811,77.515 174.886,78.000 175.200 M80.400 176.000 C 81.188 176.509,82.115 176.509,81.800 176.000 C 81.664 175.780,81.158 175.603,80.676 175.606 C 79.964 175.611,79.912 175.685,80.400 176.000 M82.800 176.800 C 83.588 177.309,84.515 177.309,84.200 176.800 C 84.064 176.580,83.558 176.403,83.076 176.406 C 82.364 176.411,82.312 176.485,82.800 176.800 M84.800 177.376 C 84.800 177.473,85.884 177.874,87.209 178.267 C 89.781 179.031,94.550 183.490,103.602 193.592 C 105.471 195.678,107.810 198.288,108.800 199.392 C 109.790 200.496,111.860 202.715,113.400 204.323 C 116.787 207.859,116.653 207.246,117.040 221.015 L 117.321 231.029 115.761 231.482 L 114.200 231.934 115.700 231.723 C 117.493 231.470,117.402 230.559,116.773 242.500 C 115.427 268.048,112.994 276.412,105.409 281.575 C 99.859 285.353,98.316 287.978,100.758 289.487 C 101.521 289.958,108.193 290.868,120.600 292.193 C 123.900 292.545,127.032 292.926,127.561 293.040 C 128.939 293.335,133.019 289.063,134.665 285.600 C 137.718 279.177,139.054 273.726,142.013 255.600 C 143.322 247.587,145.179 232.815,145.192 230.314 C 145.201 228.632,145.919 228.039,148.074 227.937 C 149.060 227.890,148.887 227.813,147.400 227.637 L 145.400 227.400 145.514 226.000 C 145.576 225.230,145.801 224.540,146.014 224.467 C 146.736 224.217,146.404 223.200,145.600 223.200 C 145.160 223.200,144.800 223.053,144.800 222.874 C 144.800 222.695,144.125 222.183,143.300 221.736 C 140.639 220.294,138.624 219.123,137.600 218.422 C 136.328 217.551,131.712 214.988,128.600 213.425 C 127.280 212.761,126.140 212.079,126.067 211.909 C 125.993 211.739,125.588 211.600,125.167 211.600 C 124.745 211.600,124.399 211.465,124.399 211.300 C 124.398 211.135,123.408 210.550,122.200 210.000 C 120.992 209.450,120.002 208.899,120.001 208.775 C 120.001 208.651,119.399 208.314,118.665 208.026 C 117.063 207.397,110.325 200.527,103.735 192.801 C 99.084 187.350,89.351 178.137,87.754 177.676 C 86.072 177.190,84.800 177.061,84.800 177.376 M327.851 183.000 C 328.301 183.660,328.793 184.541,328.944 184.957 C 329.095 185.374,329.318 185.615,329.439 185.494 C 329.749 185.184,328.592 183.054,327.742 182.371 C 327.157 181.901,327.177 182.013,327.851 183.000 M329.600 186.190 C 329.600 186.295,329.959 186.970,330.399 187.690 C 331.338 189.231,331.469 188.881,330.590 187.180 C 330.041 186.119,329.600 185.678,329.600 186.190 M331.455 190.300 C 331.885 192.057,332.741 194.249,332.772 193.675 C 332.805 193.051,331.579 189.200,331.346 189.200 C 331.257 189.200,331.306 189.695,331.455 190.300 M332.980 209.200 C 332.980 217.010,333.034 220.205,333.099 216.300 C 333.165 212.395,333.165 206.005,333.099 202.100 C 333.034 198.195,332.980 201.390,332.980 209.200 M147.600 224.800 C 148.150 225.230,148.780 225.590,149.000 225.600 C 149.672 225.630,151.460 227.181,150.833 227.191 C 150.522 227.196,150.361 227.294,150.476 227.409 C 150.775 227.708,152.000 227.184,152.000 226.757 C 152.000 226.561,151.764 226.400,151.475 226.400 C 151.187 226.400,150.564 226.040,150.092 225.600 C 149.620 225.160,148.956 224.800,148.617 224.800 C 148.278 224.800,148.000 224.620,148.000 224.400 C 148.000 224.180,147.685 224.004,147.300 224.009 C 146.733 224.016,146.790 224.166,147.600 224.800 M332.477 226.800 C 332.431 228.010,332.312 230.260,332.210 231.800 L 332.026 234.600 332.427 232.400 C 332.647 231.190,332.766 228.940,332.693 227.400 C 332.570 224.828,332.552 224.779,332.477 226.800 M101.800 234.000 L 101.000 234.344 101.800 234.332 C 102.240 234.326,103.050 234.176,103.600 234.000 L 104.600 233.680 103.600 233.668 C 103.050 233.662,102.240 233.811,101.800 234.000 M97.600 234.800 C 96.808 235.054,96.767 235.120,97.400 235.120 C 97.840 235.120,98.650 234.976,99.200 234.800 C 99.992 234.546,100.033 234.480,99.400 234.480 C 98.960 234.480,98.150 234.624,97.600 234.800 M93.400 235.600 C 92.381 236.038,93.432 236.038,94.800 235.600 C 95.604 235.343,95.643 235.277,95.000 235.268 C 94.560 235.262,93.840 235.411,93.400 235.600 M331.663 236.200 C 331.623 236.860,331.504 238.120,331.397 239.000 L 331.203 240.600 331.623 239.260 C 331.854 238.523,331.974 237.263,331.889 236.460 C 331.752 235.166,331.726 235.137,331.663 236.200 M87.000 237.200 C 86.496 237.417,86.422 237.544,86.800 237.544 C 87.130 237.544,87.760 237.389,88.200 237.200 C 88.704 236.983,88.778 236.856,88.400 236.856 C 88.070 236.856,87.440 237.011,87.000 237.200 M77.200 239.600 C 76.376 239.864,76.341 239.926,77.000 239.954 C 77.440 239.973,78.070 239.813,78.400 239.600 C 79.101 239.147,78.614 239.147,77.200 239.600 M73.800 240.400 L 73.000 240.744 73.800 240.766 C 74.240 240.778,74.870 240.613,75.200 240.400 C 75.995 239.886,74.996 239.886,73.800 240.400 M68.200 242.000 C 67.429 242.331,67.431 242.345,68.276 242.372 C 68.758 242.387,69.264 242.220,69.400 242.000 C 69.692 241.527,69.301 241.527,68.200 242.000 M330.622 243.422 C 330.472 244.225,330.438 244.972,330.548 245.082 C 330.658 245.192,330.872 244.625,331.022 243.822 C 331.173 243.019,331.206 242.273,331.096 242.163 C 330.986 242.053,330.773 242.619,330.622 243.422 M332.800 247.533 C 333.130 247.736,333.850 248.024,334.400 248.171 C 335.095 248.357,335.217 248.325,334.800 248.067 C 334.470 247.864,333.750 247.576,333.200 247.429 C 332.505 247.243,332.383 247.275,332.800 247.533 M336.626 248.965 C 338.644 249.844,339.926 250.059,338.200 249.229 C 337.320 248.806,336.330 248.453,336.000 248.445 C 335.670 248.438,335.952 248.672,336.626 248.965 M14.889 262.665 C 14.168 263.020,13.643 263.377,13.724 263.457 C 13.895 263.628,16.400 262.424,16.400 262.171 C 16.400 261.929,16.347 261.946,14.889 262.665 M368.000 262.184 C 368.000 262.294,368.720 262.751,369.600 263.200 C 370.480 263.649,371.200 263.926,371.200 263.816 C 371.200 263.706,370.480 263.249,369.600 262.800 C 368.720 262.351,368.000 262.074,368.000 262.184 M375.200 266.022 C 376.233 266.726,378.800 268.025,378.800 267.842 C 378.800 267.633,375.205 265.597,374.850 265.606 C 374.712 265.609,374.870 265.796,375.200 266.022 M11.367 268.656 C 11.424 269.041,11.696 269.432,11.973 269.524 C 12.280 269.627,12.423 269.414,12.338 268.979 C 12.157 268.047,11.232 267.739,11.367 268.656 M382.000 269.779 C 382.000 269.889,382.540 270.259,383.200 270.600 C 383.860 270.941,384.400 271.131,384.400 271.021 C 384.400 270.911,383.860 270.541,383.200 270.200 C 382.540 269.859,382.000 269.669,382.000 269.779 M12.155 270.628 C 12.290 270.979,12.400 271.351,12.400 271.456 C 12.400 271.561,12.580 271.536,12.800 271.400 C 13.394 271.033,13.285 270.518,12.555 270.238 C 12.084 270.057,11.976 270.162,12.155 270.628 M12.800 272.767 C 12.800 273.258,13.058 273.600,13.429 273.600 C 13.802 273.600,14.006 273.328,13.929 272.933 C 13.735 271.930,12.800 271.792,12.800 272.767 M386.060 272.462 C 386.027 272.826,385.661 273.816,385.247 274.662 C 384.339 276.518,382.815 279.898,382.390 281.000 C 381.597 283.056,380.557 285.309,378.745 288.900 C 377.662 291.045,376.961 292.800,377.188 292.800 C 377.415 292.800,377.600 292.549,377.600 292.243 C 377.600 291.936,377.867 291.583,378.193 291.458 C 378.531 291.328,378.685 290.965,378.550 290.615 C 378.421 290.277,378.514 290.000,378.757 290.000 C 379.001 290.000,379.200 289.640,379.200 289.200 C 379.200 288.760,379.380 288.400,379.600 288.400 C 379.820 288.400,380.000 288.059,380.000 287.643 C 380.000 287.226,380.267 286.783,380.593 286.658 C 380.931 286.528,381.085 286.165,380.950 285.815 C 380.821 285.477,380.914 285.200,381.157 285.200 C 381.401 285.200,381.600 284.851,381.600 284.424 C 381.600 283.997,381.780 283.536,382.000 283.400 C 382.220 283.264,382.400 282.803,382.400 282.376 C 382.400 281.949,382.580 281.600,382.800 281.600 C 383.020 281.600,383.200 281.150,383.200 280.600 C 383.200 280.050,383.380 279.600,383.600 279.600 C 383.820 279.600,384.000 279.240,384.000 278.800 C 384.000 278.360,384.180 278.000,384.400 278.000 C 384.620 278.000,384.800 277.550,384.800 277.000 C 384.800 276.450,384.980 276.000,385.200 276.000 C 385.420 276.000,385.600 275.655,385.600 275.233 C 385.600 274.812,385.796 274.401,386.035 274.322 C 386.274 274.242,386.391 273.642,386.295 272.988 C 386.199 272.335,386.093 272.098,386.060 272.462 M14.400 276.800 C 14.400 277.240,14.580 277.600,14.800 277.600 C 15.020 277.600,15.200 277.240,15.200 276.800 C 15.200 276.360,15.020 276.000,14.800 276.000 C 14.580 276.000,14.400 276.360,14.400 276.800 M16.000 281.200 C 16.000 281.420,16.135 281.601,16.300 281.603 C 16.659 281.607,17.600 283.544,17.600 284.280 C 17.600 284.566,17.780 284.800,18.000 284.800 C 18.220 284.800,18.400 284.440,18.400 284.000 C 18.400 283.560,18.264 283.200,18.098 283.200 C 17.931 283.200,17.556 282.660,17.264 282.000 C 16.753 280.846,16.000 280.369,16.000 281.200 M18.400 285.800 C 18.400 286.130,18.580 286.400,18.800 286.400 C 19.020 286.400,19.200 286.130,19.200 285.800 C 19.200 285.470,19.020 285.200,18.800 285.200 C 18.580 285.200,18.400 285.470,18.400 285.800 M24.000 296.600 C 24.000 296.930,24.135 297.203,24.300 297.206 C 24.465 297.210,25.040 298.110,25.579 299.206 C 26.559 301.203,27.200 301.745,27.200 300.576 C 27.200 300.233,27.020 300.064,26.800 300.200 C 26.580 300.336,26.400 300.077,26.400 299.624 C 26.400 299.171,26.220 298.800,26.000 298.800 C 25.780 298.800,25.600 298.440,25.600 298.000 C 25.600 297.560,25.420 297.200,25.200 297.200 C 24.980 297.200,24.800 296.930,24.800 296.600 C 24.800 296.270,24.620 296.000,24.400 296.000 C 24.180 296.000,24.000 296.270,24.000 296.600 M373.600 299.000 C 373.600 299.330,373.420 299.600,373.200 299.600 C 372.980 299.600,372.800 299.870,372.800 300.200 C 372.800 300.530,372.665 300.801,372.500 300.803 C 372.335 300.805,371.992 301.255,371.738 301.803 C 371.088 303.203,371.681 303.048,372.541 301.593 C 372.938 300.920,373.446 300.505,373.689 300.655 C 373.932 300.805,374.010 300.740,373.866 300.507 C 373.725 300.278,373.875 299.870,374.200 299.600 C 374.525 299.330,374.693 298.950,374.572 298.755 C 374.222 298.188,373.600 298.345,373.600 299.000 M27.486 302.700 C 29.065 305.168,29.950 305.530,28.706 303.200 C 28.236 302.320,27.611 301.600,27.317 301.600 C 26.911 301.600,26.952 301.866,27.486 302.700 M369.853 304.791 C 369.274 305.667,368.800 306.567,368.800 306.791 C 368.800 307.016,368.620 307.200,368.400 307.200 C 368.180 307.200,368.000 307.374,368.000 307.588 C 368.000 308.125,364.171 313.824,361.700 316.964 C 360.691 318.247,360.473 319.184,361.400 318.257 C 361.730 317.927,362.000 317.537,362.000 317.389 C 362.000 317.242,362.540 316.617,363.200 316.000 C 363.860 315.383,364.400 314.680,364.400 314.436 C 364.400 314.192,364.940 313.428,365.600 312.737 C 366.260 312.046,366.800 311.238,366.800 310.941 C 366.800 310.643,366.980 310.400,367.200 310.400 C 367.420 310.400,367.600 310.122,367.600 309.783 C 367.600 309.444,367.960 308.780,368.400 308.308 C 368.840 307.836,369.200 307.213,369.200 306.925 C 369.200 306.636,369.380 306.400,369.600 306.400 C 369.820 306.400,370.000 306.130,370.000 305.800 C 370.000 305.470,370.360 304.840,370.800 304.400 C 371.668 303.532,371.794 303.200,371.253 303.200 C 371.062 303.200,370.432 303.916,369.853 304.791 M32.400 310.629 C 32.400 311.153,33.627 312.030,34.021 311.787 C 34.293 311.619,34.186 311.324,33.724 310.974 C 32.959 310.394,32.400 310.248,32.400 310.629 M33.834 312.346 C 33.679 312.596,33.773 312.800,34.043 312.800 C 34.313 312.800,34.422 312.911,34.286 313.048 C 34.041 313.292,34.930 314.400,35.371 314.400 C 35.789 314.400,35.591 313.811,34.848 312.846 C 34.363 312.214,34.019 312.045,33.834 312.346 M36.093 316.000 C 36.562 316.751,37.200 317.080,37.200 316.571 C 37.200 316.273,36.125 315.200,35.825 315.200 C 35.698 315.200,35.818 315.560,36.093 316.000 M359.473 320.145 C 358.713 321.305,358.916 321.541,359.861 320.596 C 360.193 320.264,360.397 319.790,360.314 319.542 C 360.231 319.294,359.853 319.565,359.473 320.145 M40.467 321.500 C 41.007 322.716,44.312 326.781,44.767 326.789 C 45.078 326.795,45.221 326.912,45.084 327.049 C 44.776 327.357,46.746 330.000,47.283 330.000 C 47.496 330.000,47.205 329.446,46.636 328.769 C 46.066 328.092,45.600 327.372,45.600 327.169 C 45.600 326.966,44.912 326.124,44.071 325.300 C 43.230 324.475,42.201 323.215,41.785 322.500 C 41.147 321.404,40.057 320.577,40.467 321.500 M357.889 322.405 C 357.510 322.847,357.200 323.326,357.200 323.468 C 357.200 323.611,356.255 324.737,355.100 325.970 C 352.595 328.645,349.219 332.595,348.441 333.762 C 348.134 334.223,347.054 335.481,346.041 336.557 C 345.029 337.633,344.410 338.397,344.666 338.255 C 344.922 338.112,345.223 338.221,345.334 338.498 C 345.453 338.793,345.550 338.702,345.568 338.278 C 345.586 337.881,346.680 336.496,348.000 335.200 C 349.320 333.904,350.400 332.644,350.400 332.399 C 350.400 332.154,351.165 331.138,352.100 330.142 C 353.035 329.146,353.969 328.032,354.176 327.666 C 354.382 327.300,355.394 326.180,356.425 325.176 C 357.455 324.172,358.423 322.957,358.576 322.476 C 358.920 321.390,358.771 321.375,357.889 322.405 M54.062 337.800 C 58.095 341.923,58.101 341.928,57.708 340.904 C 57.370 340.023,51.305 334.000,50.756 334.000 C 50.530 334.000,52.018 335.710,54.062 337.800 M60.046 343.900 C 60.595 344.749,62.475 346.301,63.373 346.645 C 63.732 346.783,63.393 346.244,62.620 345.448 C 61.847 344.652,61.031 344.000,60.807 344.000 C 60.583 344.000,60.400 343.820,60.400 343.600 C 60.400 343.380,60.218 343.200,59.997 343.200 C 59.744 343.200,59.763 343.462,60.046 343.900 M338.060 344.668 C 337.319 345.469,337.809 345.848,338.584 345.073 C 338.926 344.731,339.070 344.368,338.903 344.267 C 338.736 344.167,338.357 344.347,338.060 344.668 M335.200 347.074 C 334.210 347.850,332.230 349.605,330.800 350.974 C 329.370 352.342,327.860 353.649,327.444 353.878 C 327.028 354.107,326.806 354.486,326.951 354.721 C 327.107 354.973,328.020 354.342,329.188 353.174 C 330.274 352.088,331.326 351.200,331.527 351.200 C 331.728 351.200,332.912 350.220,334.158 349.023 C 335.404 347.826,336.781 346.733,337.218 346.594 C 337.654 346.456,337.908 346.175,337.782 345.971 C 337.439 345.416,337.164 345.533,335.200 347.074 M63.820 347.506 C 64.029 347.674,64.727 348.259,65.371 348.806 L 66.542 349.800 65.644 348.500 C 65.150 347.785,64.452 347.200,64.093 347.200 C 63.727 347.200,63.607 347.334,63.820 347.506 M73.200 355.033 C 73.200 355.440,75.930 357.936,76.143 357.724 C 76.255 357.612,75.735 356.908,74.987 356.160 C 73.670 354.843,73.200 354.547,73.200 355.033 M325.600 355.600 C 325.283 356.040,324.793 356.400,324.512 356.400 C 324.230 356.400,324.000 356.580,324.000 356.800 C 324.000 357.020,323.745 357.200,323.433 357.200 C 323.122 357.200,322.807 357.345,322.733 357.523 C 322.660 357.701,321.790 358.409,320.800 359.097 C 319.810 359.785,318.516 360.776,317.924 361.300 C 317.332 361.824,316.387 362.598,315.824 363.021 C 314.818 363.776,314.496 364.400,315.113 364.400 C 315.284 364.400,316.364 363.504,317.513 362.409 C 318.661 361.314,319.600 360.528,319.600 360.664 C 319.600 360.799,320.075 360.435,320.655 359.855 C 321.608 358.901,321.889 358.753,322.626 358.821 C 322.751 358.832,323.211 358.385,323.649 357.828 C 324.087 357.271,324.571 356.850,324.723 356.892 C 325.219 357.031,326.800 355.821,326.800 355.304 C 326.800 354.557,326.254 354.692,325.600 355.600 M76.800 358.400 C 77.576 358.901,78.000 358.901,78.000 358.400 C 78.000 358.180,77.595 358.003,77.100 358.006 C 76.372 358.011,76.315 358.086,76.800 358.400 M77.800 359.200 C 77.664 359.420,77.818 359.600,78.143 359.600 C 78.468 359.600,78.814 359.825,78.912 360.100 C 79.010 360.375,79.227 360.474,79.393 360.319 C 79.559 360.165,79.417 359.760,79.076 359.419 C 78.351 358.694,78.135 358.657,77.800 359.200 M85.600 364.629 C 85.600 365.052,86.738 366.000,87.247 366.000 C 87.534 366.000,87.381 365.656,86.892 365.200 C 86.028 364.395,85.600 364.206,85.600 364.629 M312.049 365.504 C 311.172 365.817,302.109 371.901,301.817 372.373 C 301.672 372.608,301.203 372.800,300.776 372.800 C 300.349 372.800,300.000 372.980,300.000 373.200 C 300.000 373.420,300.172 373.600,300.381 373.600 C 300.957 373.600,302.800 372.706,302.800 372.427 C 302.800 372.292,303.430 371.843,304.200 371.428 C 304.970 371.013,305.600 370.522,305.600 370.337 C 305.600 370.152,305.836 370.000,306.125 370.000 C 306.413 370.000,307.036 369.640,307.508 369.200 C 307.980 368.760,308.655 368.400,309.007 368.400 C 309.359 368.400,309.536 368.220,309.400 368.000 C 309.264 367.780,309.418 367.600,309.743 367.600 C 310.068 367.600,310.393 367.459,310.467 367.288 C 310.540 367.116,311.203 366.688,311.941 366.337 C 313.189 365.742,313.277 365.067,312.049 365.504 M87.800 366.400 C 87.664 366.620,87.833 366.800,88.176 366.800 C 88.519 366.800,88.800 366.968,88.800 367.173 C 88.800 367.378,89.159 367.660,89.598 367.799 C 90.036 367.938,90.675 368.332,91.017 368.674 C 91.358 369.016,91.741 369.192,91.867 369.067 C 92.184 368.750,90.975 367.600,90.325 367.600 C 90.032 367.600,89.568 367.240,89.293 366.800 C 88.747 365.926,88.186 365.776,87.800 366.400 M99.039 373.138 C 98.900 373.361,98.982 373.665,99.220 373.812 C 99.835 374.193,100.232 373.672,99.718 373.158 C 99.431 372.871,99.207 372.864,99.039 373.138 M100.400 373.966 C 100.400 374.168,100.940 374.572,101.600 374.864 C 102.260 375.156,102.800 375.531,102.800 375.698 C 102.800 375.864,103.070 376.000,103.400 376.000 C 103.730 376.000,104.000 375.820,104.000 375.600 C 104.000 375.380,103.730 375.200,103.400 375.200 C 103.070 375.200,102.800 375.020,102.800 374.800 C 102.800 374.580,102.440 374.400,102.000 374.400 C 101.560 374.400,101.200 374.220,101.200 374.000 C 101.200 373.780,101.020 373.600,100.800 373.600 C 100.580 373.600,100.400 373.765,100.400 373.966 M298.400 373.953 C 298.400 374.148,297.995 374.430,297.500 374.580 C 297.005 374.731,296.798 374.938,297.039 375.040 C 297.647 375.297,299.600 374.512,299.600 374.010 C 299.600 373.784,299.330 373.600,299.000 373.600 C 298.670 373.600,298.400 373.759,298.400 373.953 M292.065 377.422 C 291.488 377.722,291.297 378.013,291.568 378.180 C 291.809 378.329,292.296 378.161,292.651 377.806 C 293.487 376.970,293.241 376.808,292.065 377.422 M286.600 380.400 C 286.464 380.620,286.003 380.800,285.576 380.800 C 285.149 380.800,284.800 380.980,284.800 381.200 C 284.800 381.420,285.160 381.600,285.600 381.600 C 286.040 381.600,286.400 381.420,286.400 381.200 C 286.400 380.980,286.659 380.800,286.976 380.800 C 287.293 380.800,287.664 380.620,287.800 380.400 C 287.936 380.180,287.777 380.000,287.447 380.000 C 287.117 380.000,286.736 380.180,286.600 380.400 M113.600 381.200 C 113.600 381.420,113.870 381.600,114.200 381.600 C 114.530 381.600,114.800 381.420,114.800 381.200 C 114.800 380.980,114.530 380.800,114.200 380.800 C 113.870 380.800,113.600 380.980,113.600 381.200 M283.200 382.000 C 283.200 382.220,283.470 382.400,283.800 382.400 C 284.130 382.400,284.400 382.220,284.400 382.000 C 284.400 381.780,284.130 381.600,283.800 381.600 C 283.470 381.600,283.200 381.780,283.200 382.000 M117.016 382.827 C 117.161 383.061,117.381 383.153,117.503 383.030 C 117.626 382.907,118.013 383.030,118.363 383.303 C 118.927 383.743,118.937 383.719,118.451 383.100 C 117.866 382.354,116.572 382.107,117.016 382.827 M281.200 382.800 C 281.200 383.020,281.470 383.200,281.800 383.200 C 282.130 383.200,282.400 383.020,282.400 382.800 C 282.400 382.580,282.130 382.400,281.800 382.400 C 281.470 382.400,281.200 382.580,281.200 382.800 M279.856 383.078 C 279.405 383.528,279.581 384.000,280.200 384.000 C 280.530 384.000,280.800 383.831,280.800 383.624 C 280.800 383.119,280.175 382.758,279.856 383.078 M278.000 384.200 C 277.726 384.530,277.254 384.800,276.951 384.800 C 276.648 384.800,276.400 384.995,276.400 385.233 C 276.400 385.472,276.535 385.601,276.700 385.520 C 278.639 384.576,279.200 384.220,279.200 383.936 C 279.200 383.401,278.543 383.546,278.000 384.200 M126.400 386.800 C 126.400 387.020,126.659 387.200,126.976 387.200 C 127.293 387.200,127.664 387.020,127.800 386.800 C 127.936 386.580,127.677 386.400,127.224 386.400 C 126.771 386.400,126.400 386.580,126.400 386.800 M272.000 386.800 C 272.000 387.020,272.259 387.200,272.576 387.200 C 272.893 387.200,273.264 387.020,273.400 386.800 C 273.536 386.580,273.277 386.400,272.824 386.400 C 272.371 386.400,272.000 386.580,272.000 386.800 M128.801 387.199 C 128.108 387.628,128.485 388.126,129.358 387.935 C 129.728 387.855,129.858 387.606,129.679 387.321 C 129.487 387.015,129.170 386.971,128.801 387.199 M270.200 387.200 C 270.064 387.420,269.524 387.600,269.000 387.600 C 268.476 387.600,267.929 387.792,267.784 388.027 C 267.389 388.666,267.943 389.017,268.487 388.473 C 268.747 388.213,269.374 388.000,269.880 388.000 C 270.386 388.000,270.800 387.809,270.800 387.576 C 270.800 387.343,271.008 387.281,271.262 387.438 C 271.548 387.615,271.615 387.548,271.438 387.262 C 271.087 386.694,270.530 386.666,270.200 387.200 M130.487 388.062 C 130.695 388.685,131.590 388.794,131.621 388.200 C 131.633 387.980,131.342 387.738,130.975 387.662 C 130.558 387.575,130.375 387.725,130.487 388.062 M265.467 388.969 C 265.334 389.317,264.929 389.454,264.424 389.322 C 263.827 389.166,263.600 389.297,263.600 389.796 C 263.600 390.298,263.790 390.406,264.300 390.191 C 264.685 390.030,265.393 389.812,265.873 389.707 C 266.998 389.462,267.451 388.400,266.430 388.400 C 266.021 388.400,265.587 388.656,265.467 388.969 M132.720 389.280 C 133.093 389.653,133.307 389.653,133.680 389.280 C 134.053 388.907,133.947 388.800,133.200 388.800 C 132.453 388.800,132.347 388.907,132.720 389.280 M261.600 390.587 C 261.600 390.945,261.835 391.085,262.200 390.945 C 262.530 390.818,262.800 390.554,262.800 390.357 C 262.800 390.161,262.530 390.000,262.200 390.000 C 261.870 390.000,261.600 390.264,261.600 390.587 M139.800 391.200 C 139.664 391.420,139.923 391.600,140.376 391.600 C 140.829 391.600,141.200 391.420,141.200 391.200 C 141.200 390.980,140.941 390.800,140.624 390.800 C 140.307 390.800,139.936 390.980,139.800 391.200 M258.800 391.200 C 258.800 391.420,259.160 391.600,259.600 391.600 C 260.040 391.600,260.400 391.420,260.400 391.200 C 260.400 390.980,260.040 390.800,259.600 390.800 C 259.160 390.800,258.800 390.980,258.800 391.200 M142.000 392.000 C 142.000 392.220,142.461 392.400,143.024 392.400 C 143.604 392.400,143.940 392.227,143.800 392.000 C 143.664 391.780,143.203 391.600,142.776 391.600 C 142.349 391.600,142.000 391.780,142.000 392.000 M256.000 392.000 C 256.000 392.220,256.349 392.400,256.776 392.400 C 257.203 392.400,257.664 392.220,257.800 392.000 C 257.940 391.773,257.604 391.600,257.024 391.600 C 256.461 391.600,256.000 391.780,256.000 392.000 M145.000 392.800 C 144.864 393.020,145.123 393.200,145.576 393.200 C 146.029 393.200,146.400 393.020,146.400 392.800 C 146.400 392.580,146.141 392.400,145.824 392.400 C 145.507 392.400,145.136 392.580,145.000 392.800 M253.200 392.800 C 253.200 393.020,253.560 393.200,254.000 393.200 C 254.440 393.200,254.800 393.020,254.800 392.800 C 254.800 392.580,254.440 392.400,254.000 392.400 C 253.560 392.400,253.200 392.580,253.200 392.800 M147.200 393.600 C 147.200 393.820,147.650 394.000,148.200 394.000 C 148.750 394.000,149.200 393.820,149.200 393.600 C 149.200 393.380,148.750 393.200,148.200 393.200 C 147.650 393.200,147.200 393.380,147.200 393.600 M250.200 393.600 C 250.336 393.820,250.807 394.000,251.247 394.000 C 251.687 394.000,251.936 393.820,251.800 393.600 C 251.664 393.380,251.193 393.200,250.753 393.200 C 250.313 393.200,250.064 393.380,250.200 393.600 M247.800 394.400 C 247.936 394.620,248.397 394.800,248.824 394.800 C 249.251 394.800,249.600 394.620,249.600 394.400 C 249.600 394.180,249.139 394.000,248.576 394.000 C 247.996 394.000,247.660 394.173,247.800 394.400 M157.000 396.000 C 157.136 396.220,157.867 396.400,158.624 396.400 C 159.381 396.400,160.000 396.220,160.000 396.000 C 160.000 395.780,159.269 395.600,158.376 395.600 C 157.396 395.600,156.851 395.758,157.000 396.000 M239.800 396.000 C 239.500 396.486,241.469 396.486,242.600 396.000 C 243.222 395.733,243.027 395.650,241.724 395.628 C 240.802 395.613,239.936 395.780,239.800 396.000 M161.200 396.800 C 161.988 397.309,163.600 397.309,163.600 396.800 C 163.600 396.580,162.925 396.403,162.100 396.406 C 160.984 396.411,160.754 396.512,161.200 396.800 M236.200 396.800 C 236.336 397.020,236.797 397.200,237.224 397.200 C 237.651 397.200,238.000 397.020,238.000 396.800 C 238.000 396.580,237.539 396.400,236.976 396.400 C 236.396 396.400,236.060 396.573,236.200 396.800 M232.681 397.641 C 232.998 397.958,233.332 397.961,233.861 397.654 C 234.509 397.277,234.454 397.223,233.420 397.212 C 232.559 397.203,232.360 397.320,232.681 397.641 M170.600 398.400 C 170.736 398.620,171.657 398.800,172.647 398.800 C 173.745 398.800,174.351 398.644,174.200 398.400 C 174.064 398.180,173.143 398.000,172.153 398.000 C 171.055 398.000,170.449 398.156,170.600 398.400 M226.000 398.400 C 226.000 398.620,226.889 398.800,227.976 398.800 C 229.063 398.800,230.064 398.620,230.200 398.400 C 230.353 398.152,229.604 398.000,228.224 398.000 C 227.001 398.000,226.000 398.180,226.000 398.400 M220.500 398.725 C 218.807 398.971,219.597 399.600,221.600 399.600 C 222.700 399.600,223.600 399.440,223.600 399.245 C 223.600 398.835,221.811 398.534,220.500 398.725 M176.600 399.200 C 176.736 399.420,177.647 399.600,178.624 399.600 C 179.601 399.600,180.400 399.420,180.400 399.200 C 180.400 398.980,179.489 398.800,178.376 398.800 C 177.129 398.800,176.448 398.953,176.600 399.200 M187.113 399.895 C 188.276 399.976,190.076 399.976,191.113 399.893 C 192.151 399.811,191.200 399.745,189.000 399.746 C 186.800 399.747,185.951 399.814,187.113 399.895 M208.500 399.894 C 209.545 399.976,211.255 399.976,212.300 399.894 C 213.345 399.812,212.490 399.744,210.400 399.744 C 208.310 399.744,207.455 399.812,208.500 399.894 " stroke="none" fill="#dbdcdc" fill-rule="evenodd"></path><path id="path3" d="M71.331 133.374 C 69.737 134.079,69.040 135.252,69.715 136.094 C 71.424 138.224,76.400 137.366,76.400 134.941 C 76.400 133.414,73.364 132.475,71.331 133.374 M40.114 139.209 C 37.673 141.004,37.091 143.113,38.243 145.992 C 39.234 148.467,40.912 147.299,41.964 143.400 C 43.098 139.196,42.371 137.549,40.114 139.209 " stroke="none" fill="#7d9192" fill-rule="evenodd"></path><path id="path4" d="M75.338 125.906 C 75.084 126.068,77.542 126.200,80.800 126.200 C 84.058 126.200,86.516 126.068,86.262 125.906 C 86.008 125.744,83.550 125.612,80.800 125.612 C 78.050 125.612,75.592 125.744,75.338 125.906 M71.600 126.800 C 70.842 127.290,72.070 127.290,73.600 126.800 C 74.580 126.486,74.576 126.479,73.400 126.446 C 72.740 126.427,71.930 126.587,71.600 126.800 M87.233 126.549 C 87.325 126.631,88.300 126.818,89.400 126.965 C 90.820 127.155,91.226 127.114,90.800 126.823 C 90.261 126.454,86.832 126.190,87.233 126.549 M68.000 127.600 C 67.236 128.094,68.058 128.094,69.600 127.600 L 70.600 127.280 69.600 127.246 C 69.050 127.227,68.330 127.387,68.000 127.600 M93.000 127.600 C 94.868 128.075,96.336 128.075,95.600 127.600 C 95.270 127.387,94.280 127.231,93.400 127.253 C 91.859 127.293,91.844 127.306,93.000 127.600 M65.200 128.400 C 64.405 128.914,65.404 128.914,66.600 128.400 L 67.400 128.056 66.600 128.034 C 66.160 128.022,65.530 128.187,65.200 128.400 M97.000 128.400 C 98.196 128.914,99.195 128.914,98.400 128.400 C 98.070 128.187,97.440 128.022,97.000 128.034 L 96.200 128.056 97.000 128.400 M62.400 129.200 C 61.605 129.714,62.604 129.714,63.800 129.200 L 64.600 128.856 63.800 128.834 C 63.360 128.822,62.730 128.987,62.400 129.200 M99.800 129.200 C 100.996 129.714,101.995 129.714,101.200 129.200 C 100.870 128.987,100.240 128.822,99.800 128.834 L 99.000 128.856 99.800 129.200 M102.800 130.000 C 103.588 130.509,104.515 130.509,104.200 130.000 C 104.064 129.780,103.558 129.603,103.076 129.606 C 102.364 129.611,102.312 129.685,102.800 130.000 M58.000 130.800 C 57.467 131.145,57.467 131.188,58.000 131.188 C 58.330 131.188,58.870 131.013,59.200 130.800 C 59.733 130.455,59.733 130.412,59.200 130.412 C 58.870 130.412,58.330 130.587,58.000 130.800 M105.600 130.800 C 106.388 131.309,107.315 131.309,107.000 130.800 C 106.864 130.580,106.358 130.403,105.876 130.406 C 105.164 130.411,105.112 130.485,105.600 130.800 M53.195 132.563 C 48.365 134.454,42.399 137.519,42.406 138.104 C 42.410 138.444,42.505 138.463,42.706 138.165 C 43.084 137.606,49.662 134.419,53.800 132.790 C 55.560 132.097,57.075 131.456,57.167 131.365 C 57.578 130.957,56.349 131.328,53.195 132.563 M108.400 131.600 C 108.730 131.813,109.270 131.988,109.600 131.988 C 110.133 131.988,110.133 131.945,109.600 131.600 C 109.270 131.387,108.730 131.212,108.400 131.212 C 107.867 131.212,107.867 131.255,108.400 131.600 M110.474 132.207 C 110.588 132.322,112.811 133.145,115.414 134.038 C 118.017 134.931,123.735 137.096,128.122 138.849 C 132.509 140.602,136.191 141.942,136.306 141.827 C 136.421 141.713,136.174 141.508,135.757 141.373 C 135.014 141.132,134.298 140.853,132.100 139.946 C 131.495 139.697,130.550 139.316,130.000 139.100 C 129.450 138.884,128.687 138.548,128.305 138.353 C 127.923 138.159,127.434 138.000,127.217 138.000 C 127.001 138.000,125.873 137.566,124.712 137.034 C 123.550 136.503,120.980 135.504,119.000 134.814 C 110.851 131.972,109.969 131.702,110.474 132.207 M137.800 142.609 C 142.390 144.742,145.352 145.981,145.502 145.831 C 145.664 145.669,143.902 144.803,140.400 143.324 C 139.630 142.999,138.687 142.568,138.305 142.366 C 137.923 142.165,137.383 142.012,137.105 142.026 C 136.827 142.040,137.140 142.302,137.800 142.609 M148.170 147.151 C 148.431 147.575,152.015 148.518,152.296 148.237 C 152.405 148.128,151.978 147.928,151.347 147.792 C 150.716 147.656,149.787 147.377,149.281 147.172 C 148.137 146.709,147.893 146.704,148.170 147.151 M39.214 148.374 C 38.711 149.314,38.691 150.409,39.164 151.155 C 39.399 151.527,39.562 151.032,39.658 149.655 C 39.817 147.350,39.796 147.287,39.214 148.374 M153.400 148.800 C 154.596 149.314,155.595 149.314,154.800 148.800 C 154.470 148.587,153.840 148.422,153.400 148.434 L 152.600 148.456 153.400 148.800 M156.000 149.600 C 156.330 149.813,156.960 149.988,157.400 149.988 C 158.062 149.988,158.097 149.921,157.600 149.600 C 157.270 149.387,156.640 149.212,156.200 149.212 C 155.538 149.212,155.503 149.279,156.000 149.600 M159.000 150.400 C 159.440 150.589,160.160 150.744,160.600 150.744 L 161.400 150.744 160.600 150.400 C 160.160 150.211,159.440 150.056,159.000 150.056 L 158.200 150.056 159.000 150.400 M161.680 151.013 C 161.797 151.131,163.042 151.498,164.447 151.829 C 165.851 152.161,167.720 152.620,168.600 152.849 C 171.362 153.569,172.924 153.926,175.400 154.403 C 176.720 154.657,178.520 155.016,179.400 155.200 C 182.694 155.890,185.494 156.378,188.600 156.803 C 190.360 157.044,192.826 157.435,194.080 157.671 C 195.334 157.907,196.684 157.971,197.080 157.813 C 197.476 157.654,198.790 157.353,200.000 157.144 C 201.210 156.934,203.145 156.591,204.300 156.382 C 210.063 155.335,211.961 155.044,220.200 153.950 C 239.897 151.334,264.223 151.679,280.000 154.798 C 281.210 155.038,282.787 155.336,283.504 155.461 C 284.221 155.586,284.906 155.849,285.027 156.044 C 285.148 156.240,285.629 156.400,286.095 156.400 C 286.885 156.400,288.722 156.897,290.600 157.618 C 293.900 158.886,294.927 159.207,295.107 159.026 C 295.221 158.912,294.974 158.711,294.557 158.580 C 294.141 158.449,293.487 158.175,293.105 157.971 C 292.723 157.767,292.048 157.600,291.605 157.600 C 291.162 157.600,290.800 157.420,290.800 157.200 C 290.800 156.980,290.271 156.800,289.624 156.800 C 288.977 156.800,288.348 156.640,288.227 156.444 C 288.106 156.249,287.421 155.991,286.704 155.873 C 284.543 155.515,283.044 155.158,282.200 154.801 C 281.760 154.614,280.590 154.343,279.600 154.198 C 278.610 154.053,276.810 153.768,275.600 153.564 C 261.387 151.173,237.343 151.182,219.800 153.586 C 218.040 153.828,215.250 154.199,213.600 154.412 C 210.466 154.817,207.708 155.273,204.000 156.000 C 202.790 156.237,200.900 156.565,199.800 156.728 C 198.700 156.891,197.579 157.162,197.310 157.330 C 197.040 157.498,195.780 157.446,194.510 157.216 C 193.239 156.985,190.310 156.525,188.000 156.194 C 185.690 155.862,182.990 155.433,182.000 155.240 C 175.328 153.940,172.774 153.386,167.844 152.170 C 162.298 150.802,161.278 150.611,161.680 151.013 M39.632 152.620 C 39.614 153.071,39.820 153.660,40.090 153.930 C 40.477 154.317,40.477 154.585,40.090 155.205 C 39.064 156.847,39.471 160.625,40.840 162.185 C 42.437 164.003,53.514 168.872,55.862 168.788 C 56.610 168.761,54.755 168.002,50.065 166.417 C 40.961 163.340,38.032 160.024,40.441 155.524 C 40.748 154.950,40.757 154.443,40.470 153.850 C 40.244 153.383,39.970 152.730,39.861 152.400 C 39.728 151.997,39.653 152.069,39.632 152.620 M296.800 159.881 C 297.570 160.245,299.073 160.973,300.140 161.499 C 301.208 162.024,301.983 162.296,301.863 162.102 C 301.743 161.908,300.780 161.336,299.722 160.831 C 298.665 160.326,297.487 159.752,297.105 159.556 C 296.723 159.360,296.183 159.204,295.905 159.209 C 295.627 159.214,296.030 159.516,296.800 159.881 M304.000 163.390 C 304.000 163.494,304.585 163.865,305.300 164.214 L 306.600 164.848 305.600 164.033 C 304.637 163.248,304.000 162.992,304.000 163.390 M307.961 165.876 C 308.710 166.494,310.060 167.652,310.961 168.449 C 311.863 169.246,313.590 170.396,314.800 171.005 C 322.697 174.975,328.388 181.425,331.914 190.400 C 333.994 195.696,333.554 227.436,331.195 242.200 C 330.542 246.286,330.542 246.499,331.200 246.725 C 331.693 246.893,331.711 246.822,331.300 246.324 C 330.947 245.896,330.910 245.379,331.174 244.559 C 333.491 237.371,334.673 197.984,332.759 191.742 C 330.074 182.986,321.334 172.662,314.881 170.624 C 314.376 170.465,312.936 169.487,311.681 168.451 C 310.427 167.416,308.770 166.160,308.000 165.660 L 306.600 164.751 307.961 165.876 M56.800 169.200 C 57.130 169.413,57.760 169.588,58.200 169.588 C 58.862 169.588,58.897 169.521,58.400 169.200 C 58.070 168.987,57.440 168.812,57.000 168.812 C 56.338 168.812,56.303 168.879,56.800 169.200 M59.200 169.763 C 59.200 169.852,60.235 170.231,61.500 170.604 C 62.765 170.977,64.286 171.462,64.880 171.681 C 65.473 171.901,66.176 172.008,66.440 171.920 C 66.704 171.832,65.301 171.274,63.322 170.680 C 59.647 169.577,59.200 169.478,59.200 169.763 M67.600 172.400 C 67.930 172.613,68.560 172.778,69.000 172.766 L 69.800 172.744 69.000 172.400 C 67.804 171.886,66.805 171.886,67.600 172.400 M70.200 173.200 C 70.336 173.420,70.728 173.600,71.071 173.600 C 71.770 173.600,76.619 175.098,77.695 175.646 C 78.077 175.841,78.741 176.000,79.171 176.000 C 79.601 176.000,80.064 176.180,80.200 176.400 C 80.336 176.620,80.799 176.800,81.229 176.800 C 81.659 176.800,82.323 176.962,82.705 177.161 C 83.087 177.360,84.210 177.751,85.200 178.031 C 86.190 178.310,87.171 178.688,87.380 178.870 C 87.589 179.051,88.069 179.200,88.446 179.200 C 89.198 179.200,96.466 186.251,101.200 191.573 C 106.550 197.587,108.141 199.320,111.800 203.117 C 114.091 205.495,115.571 207.390,115.869 208.327 C 116.335 209.789,116.339 209.791,116.365 208.600 C 116.386 207.636,115.820 206.809,113.493 204.400 C 111.899 202.750,109.786 200.496,108.797 199.392 C 107.809 198.288,105.472 195.678,103.604 193.592 C 101.736 191.506,97.776 187.349,94.804 184.354 L 89.400 178.908 80.000 175.853 C 70.143 172.649,69.803 172.557,70.200 173.200 M116.698 220.600 C 116.811 226.320,116.970 231.075,117.052 231.167 C 117.321 231.469,117.121 217.472,116.804 213.800 C 116.619 211.655,116.576 214.403,116.698 220.600 M146.091 224.344 C 145.835 224.502,145.575 225.254,145.513 226.016 L 145.400 227.400 148.000 227.435 C 150.564 227.470,150.568 227.468,148.300 227.315 C 146.088 227.166,146.000 227.117,146.000 226.047 C 146.000 224.395,146.333 224.317,148.151 225.548 C 150.241 226.964,151.885 227.597,150.400 226.414 C 149.850 225.976,149.248 225.614,149.062 225.609 C 148.876 225.604,148.236 225.253,147.640 224.828 C 147.044 224.404,146.347 224.186,146.091 224.344 M113.200 231.600 L 112.200 231.920 113.200 231.932 C 113.750 231.938,114.560 231.789,115.000 231.600 L 115.800 231.256 115.000 231.268 C 114.560 231.274,113.750 231.424,113.200 231.600 M108.800 232.400 L 107.800 232.720 108.800 232.720 C 109.350 232.720,110.250 232.576,110.800 232.400 L 111.800 232.080 110.800 232.080 C 110.250 232.080,109.350 232.224,108.800 232.400 M104.000 233.200 L 102.600 233.495 104.000 233.507 C 104.770 233.515,105.850 233.376,106.400 233.200 L 107.400 232.880 106.400 232.893 C 105.850 232.900,104.770 233.038,104.000 233.200 M97.600 234.389 C 95.730 234.781,94.549 235.124,94.976 235.151 C 95.855 235.207,100.089 234.458,101.600 233.980 C 103.417 233.405,101.225 233.629,97.600 234.389 M87.400 236.638 C 84.320 237.401,81.170 238.190,80.400 238.393 C 79.630 238.595,78.484 238.868,77.853 239.000 C 77.222 239.131,76.800 239.333,76.914 239.448 C 77.114 239.648,93.623 235.690,93.967 235.360 C 94.336 235.005,92.740 235.316,87.400 236.638 M73.804 239.994 C 73.652 240.240,74.055 240.294,74.880 240.137 C 76.649 239.800,76.801 239.600,75.290 239.600 C 74.607 239.600,73.938 239.777,73.804 239.994 M70.990 240.816 C 70.821 241.089,71.123 241.138,71.866 240.960 C 73.399 240.592,73.544 240.400,72.290 240.400 C 71.717 240.400,71.132 240.587,70.990 240.816 M68.400 241.618 C 67.962 241.915,68.124 241.952,69.000 241.756 C 70.471 241.427,70.790 241.198,69.767 241.206 C 69.345 241.209,68.730 241.395,68.400 241.618 M65.800 242.400 C 65.508 242.873,65.899 242.873,67.000 242.400 C 67.771 242.069,67.769 242.055,66.924 242.028 C 66.442 242.013,65.936 242.180,65.800 242.400 M63.400 243.200 C 63.108 243.673,63.499 243.673,64.600 243.200 C 65.371 242.869,65.369 242.855,64.524 242.828 C 64.042 242.813,63.536 242.980,63.400 243.200 M58.200 244.800 C 57.908 245.273,58.299 245.273,59.400 244.800 C 60.171 244.469,60.169 244.455,59.324 244.428 C 58.842 244.413,58.336 244.580,58.200 244.800 M55.800 245.600 C 55.508 246.073,55.899 246.073,57.000 245.600 C 57.771 245.269,57.769 245.255,56.924 245.228 C 56.442 245.213,55.936 245.380,55.800 245.600 M53.200 246.400 C 52.667 246.745,52.667 246.788,53.200 246.788 C 53.530 246.788,54.070 246.613,54.400 246.400 C 54.933 246.055,54.933 246.012,54.400 246.012 C 54.070 246.012,53.530 246.187,53.200 246.400 M50.600 247.200 C 50.308 247.673,50.699 247.673,51.800 247.200 C 52.571 246.869,52.569 246.855,51.724 246.828 C 51.242 246.813,50.736 246.980,50.600 247.200 M48.400 248.000 C 47.867 248.345,47.867 248.388,48.400 248.388 C 48.730 248.388,49.270 248.213,49.600 248.000 C 50.133 247.655,50.133 247.612,49.600 247.612 C 49.270 247.612,48.730 247.787,48.400 248.000 M334.800 248.000 C 335.130 248.213,335.670 248.388,336.000 248.388 C 336.533 248.388,336.533 248.345,336.000 248.000 C 335.670 247.787,335.130 247.612,334.800 247.612 C 334.267 247.612,334.267 247.655,334.800 248.000 M44.000 249.600 C 43.467 249.945,43.467 249.988,44.000 249.988 C 44.330 249.988,44.870 249.813,45.200 249.600 C 45.733 249.255,45.733 249.212,45.200 249.212 C 44.870 249.212,44.330 249.387,44.000 249.600 M36.200 252.615 C 32.680 254.034,29.080 255.537,28.200 255.955 C 27.320 256.374,25.910 257.021,25.068 257.393 C 24.225 257.764,23.615 258.149,23.713 258.246 C 23.811 258.344,25.041 257.898,26.446 257.255 C 31.385 254.994,32.645 254.455,37.800 252.401 C 40.660 251.261,43.075 250.254,43.167 250.164 C 43.638 249.700,42.026 250.267,36.200 252.615 M344.000 251.274 C 345.349 251.918,347.225 252.721,354.600 255.812 C 356.580 256.642,358.380 257.446,358.600 257.598 C 359.164 257.989,360.400 258.408,360.400 258.208 C 360.400 258.048,356.932 256.357,354.000 255.088 C 349.611 253.187,344.870 251.274,344.000 251.052 L 343.000 250.796 344.000 251.274 M362.138 259.247 C 362.984 259.693,363.760 259.974,363.863 259.871 C 364.089 259.644,361.657 258.393,361.039 258.418 C 360.797 258.427,361.292 258.800,362.138 259.247 M17.076 261.087 C 16.017 261.636,15.234 262.168,15.336 262.269 C 15.437 262.370,16.573 261.910,17.860 261.246 C 19.147 260.582,19.930 260.050,19.600 260.064 C 19.270 260.077,18.134 260.538,17.076 261.087 M364.433 260.149 C 364.845 260.517,367.200 261.600,367.200 261.421 C 367.200 261.190,364.982 260.000,364.553 260.000 C 364.396 260.000,364.342 260.067,364.433 260.149 M13.300 262.944 C 12.805 263.189,12.400 263.532,12.400 263.705 C 12.400 263.879,12.940 263.741,13.600 263.400 C 14.260 263.059,14.800 262.694,14.800 262.590 C 14.800 262.321,14.339 262.430,13.300 262.944 M375.600 265.752 C 375.600 265.908,378.738 267.788,381.200 269.105 C 384.562 270.905,386.400 272.240,386.400 272.885 C 386.400 273.278,386.593 273.600,386.828 273.600 C 387.932 273.600,386.860 271.839,385.200 270.926 C 384.210 270.381,382.230 269.253,380.800 268.420 C 377.572 266.538,375.600 265.526,375.600 265.752 M383.200 280.176 C 383.200 281.067,383.826 281.244,383.892 280.372 C 383.924 279.948,383.781 279.600,383.575 279.600 C 383.369 279.600,383.200 279.859,383.200 280.176 M381.892 283.442 C 381.731 283.602,381.600 284.009,381.600 284.347 C 381.600 284.797,381.718 284.842,382.045 284.515 C 382.290 284.270,382.421 283.863,382.337 283.610 C 382.252 283.357,382.052 283.281,381.892 283.442 M372.747 301.300 C 372.247 302.015,371.676 302.713,371.477 302.850 C 371.272 302.991,371.308 303.219,371.558 303.374 C 371.810 303.529,372.173 303.248,372.397 302.724 C 372.614 302.216,373.086 301.395,373.445 300.900 C 373.804 300.405,373.998 300.000,373.876 300.000 C 373.754 300.000,373.246 300.585,372.747 301.300 M370.414 304.774 C 369.923 305.692,369.894 306.001,370.300 305.997 C 370.465 305.995,370.808 305.545,371.062 304.997 C 371.603 303.832,371.025 303.633,370.414 304.774 M364.860 313.442 C 364.131 314.266,364.600 314.657,365.381 313.876 C 365.721 313.536,366.000 313.154,366.000 313.029 C 366.000 312.609,365.406 312.824,364.860 313.442 M362.460 316.642 C 361.731 317.466,362.200 317.857,362.981 317.076 C 363.321 316.736,363.600 316.354,363.600 316.229 C 363.600 315.809,363.006 316.024,362.460 316.642 M360.900 318.598 C 360.299 319.281,360.248 320.000,360.800 320.000 C 361.020 320.000,361.200 319.730,361.200 319.400 C 361.200 319.070,361.380 318.800,361.600 318.800 C 361.820 318.800,362.000 318.620,362.000 318.400 C 362.000 317.837,361.489 317.929,360.900 318.598 M358.692 321.970 C 358.551 322.510,358.656 322.677,359.045 322.527 C 359.350 322.410,359.600 322.064,359.600 321.757 C 359.600 320.926,358.924 321.084,358.692 321.970 M355.900 325.652 C 354.855 326.756,354.000 327.846,354.000 328.075 C 354.000 328.304,354.900 327.532,356.000 326.361 C 357.100 325.189,358.000 324.089,358.000 323.915 C 358.000 323.445,357.954 323.483,355.900 325.652 M351.824 330.426 C 350.996 331.321,350.429 332.163,350.564 332.297 C 350.698 332.432,351.079 332.195,351.410 331.771 C 354.007 328.446,354.182 327.877,351.824 330.426 M346.500 336.610 C 346.005 337.139,345.600 337.682,345.600 337.816 C 345.600 338.161,347.951 336.266,347.978 335.900 C 348.019 335.347,347.408 335.641,346.500 336.610 M342.337 340.546 C 339.267 343.697,338.672 344.402,339.084 344.394 C 339.526 344.385,340.677 343.614,340.259 343.606 C 340.072 343.603,341.148 342.441,342.650 341.025 C 344.153 339.608,345.268 338.335,345.128 338.195 C 344.988 338.055,343.732 339.113,342.337 340.546 M330.060 352.251 C 329.543 352.802,329.190 353.324,329.277 353.410 C 329.469 353.603,331.600 351.808,331.600 351.453 C 331.600 350.949,330.981 351.269,330.060 352.251 M321.776 358.987 C 321.117 359.486,321.099 359.576,321.657 359.587 C 322.019 359.594,322.418 359.330,322.545 359.000 C 322.831 358.255,322.747 358.253,321.776 358.987 M318.860 361.068 C 318.134 361.853,318.425 362.064,319.325 361.406 C 319.722 361.115,319.902 360.788,319.724 360.680 C 319.546 360.572,319.157 360.747,318.860 361.068 " stroke="none" fill="#badce0" fill-rule="evenodd"></path></g></svg>